<svg width="32" height="33" viewBox="0 0 32 33" fill="none" xmlns="http://www.w3.org/2000/svg">
<path fill-rule="evenodd" clip-rule="evenodd" d="M16 32.6523C24.8366 32.6523 32 25.4889 32 16.6523C32 7.81579 24.8366 0.652344 16 0.652344C7.16344 0.652344 0 7.81579 0 16.6523C0 25.4889 7.16344 32.6523 16 32.6523ZM19.9466 14.8746H15.9466V13.2106C15.9466 12.0337 16.0159 11.6755 16.2115 11.3101C16.3555 11.0399 16.5564 10.839 16.8266 10.695C17.1919 10.4995 17.5502 10.4301 18.7271 10.4301H19.9466V8.78568C19.5982 8.69679 19.1911 8.65234 18.7271 8.65234C17.1422 8.65234 16.5671 8.81768 15.9875 9.12701C15.4149 9.43013 14.9466 9.89839 14.6435 10.471C14.3342 11.0506 14.1688 11.6257 14.1688 13.2106V14.8746H10.6133V16.6523H14.1688V24.6523H15.9466V16.6523H19.5022L19.9466 14.8746Z" fill="white"/>
</svg>
