<svg width="775" height="694" viewBox="0 0 775 694" fill="none" xmlns="http://www.w3.org/2000/svg">
<path d="M70.5977 414.104C109.588 414.104 141.195 382.498 141.195 343.51C141.195 304.522 109.588 272.917 70.5977 272.917C31.6077 272.917 0 304.522 0 343.51C0 382.498 31.6077 414.104 70.5977 414.104Z" fill="white" fill-opacity="0.03"/>
<path d="M776.402 414.104C815.392 414.104 847 382.498 847 343.51C847 304.522 815.392 272.917 776.402 272.917C737.412 272.917 705.805 304.522 705.805 343.51C705.805 382.498 737.412 414.104 776.402 414.104Z" fill="white" fill-opacity="0.03"/>
<path d="M423.471 61.1869C462.461 61.1869 494.068 29.5811 494.068 -9.40657C494.068 -48.3943 462.461 -80 423.471 -80C384.481 -80 352.873 -48.3943 352.873 -9.40657C352.873 29.5811 384.481 61.1869 423.471 61.1869Z" fill="white" fill-opacity="0.03"/>
<path d="M423.471 767C462.461 767 494.068 735.394 494.068 696.406C494.068 657.419 462.461 625.813 423.471 625.813C384.481 625.813 352.873 657.419 352.873 696.406C352.873 735.394 384.481 767 423.471 767Z" fill="white" fill-opacity="0.03"/>
<path d="M353.447 352.277C292.738 367.866 238.94 403.205 200.523 452.728C162.107 502.251 141.256 563.145 141.253 625.82C203.932 625.817 264.829 604.967 314.355 566.553C363.881 528.139 399.222 474.343 414.812 413.638C399.204 411.721 384.685 404.64 373.566 393.521C362.446 382.402 355.365 367.884 353.447 352.277Z" fill="white" fill-opacity="0.03"/>
<path d="M493.496 352.277C491.56 367.846 484.484 382.325 473.39 393.419C462.295 404.513 447.816 411.588 432.246 413.523C447.845 474.224 483.188 528.013 532.712 566.426C582.236 604.838 643.129 625.692 705.805 625.705C705.79 563.029 684.918 502.141 646.478 452.635C608.038 403.129 554.217 367.822 493.496 352.277Z" fill="white" fill-opacity="0.03"/>
<path d="M353.447 334.717C355.393 319.151 362.471 304.678 373.564 293.586C384.657 282.494 399.131 275.416 414.697 273.471C399.116 212.76 363.778 158.959 314.25 120.544C264.722 82.1282 203.82 61.2818 141.138 61.2889C141.173 123.96 162.053 184.839 200.489 234.34C238.926 283.842 292.736 319.154 353.447 334.717Z" fill="white" fill-opacity="0.03"/>
<path d="M432.246 273.484C447.812 275.429 462.286 282.507 473.379 293.599C484.472 304.691 491.55 319.164 493.496 334.729C554.209 319.149 608.014 283.813 646.432 234.288C684.849 184.763 705.697 123.865 705.69 61.187C643.016 61.2218 582.133 82.1001 532.628 120.534C483.124 158.969 447.81 212.776 432.246 273.484Z" fill="white" fill-opacity="0.03"/>
</svg>
