<svg width="49" height="49" viewBox="0 0 49 49" fill="none" xmlns="http://www.w3.org/2000/svg">
<rect x="0.5" y="0.652344" width="48" height="48" fill="#0DC143"/>
<path d="M35.2504 13.8638C32.6775 11.2152 29.1207 9.77734 25.4883 9.77734C17.7694 9.77734 11.564 16.0584 11.6396 23.7017C11.6396 26.1233 12.3207 28.4692 13.4558 30.5882L11.4883 37.7773L18.8288 35.8855C20.8721 37.0206 23.1423 37.5503 25.4126 37.5503C33.0558 37.5503 39.2613 31.2692 39.2613 23.626C39.2613 19.9179 37.8234 16.4368 35.2504 13.8638ZM25.4883 35.2044C23.445 35.2044 21.4018 34.6746 19.6613 33.6152L19.2072 33.3882L14.818 34.5233L15.9531 30.2098L15.6504 29.7557C12.3207 24.3827 13.9099 17.2692 19.3586 13.9395C24.8072 10.6098 31.845 12.199 35.1748 17.6476C38.5045 23.0963 36.9153 30.1341 31.4667 33.4638C29.7261 34.599 27.6072 35.2044 25.4883 35.2044ZM32.1477 26.8044L31.3153 26.426C31.3153 26.426 30.1045 25.8963 29.3477 25.5179C29.2721 25.5179 29.1964 25.4422 29.1207 25.4422C28.8937 25.4422 28.7423 25.5179 28.591 25.5936C28.591 25.5936 28.5153 25.6692 27.4558 26.88C27.3802 27.0314 27.2288 27.1071 27.0775 27.1071H27.0018C26.9261 27.1071 26.7748 27.0314 26.6991 26.9557L26.3207 26.8044C25.4883 26.426 24.7315 25.9719 24.1261 25.3665C23.9748 25.2152 23.7477 25.0638 23.5964 24.9125C23.0667 24.3827 22.5369 23.7773 22.1586 23.0963L22.0829 22.9449C22.0072 22.8692 22.0072 22.7936 21.9315 22.6422C21.9315 22.4909 21.9315 22.3395 22.0072 22.2638C22.0072 22.2638 22.3099 21.8855 22.5369 21.6584C22.6883 21.5071 22.764 21.28 22.9153 21.1287C23.0667 20.9017 23.1423 20.599 23.0667 20.3719C22.991 19.9936 22.0829 17.9503 21.8558 17.4963C21.7045 17.2692 21.5531 17.1936 21.3261 17.1179H21.0991C20.9477 17.1179 20.7207 17.1179 20.4937 17.1179C20.3423 17.1179 20.191 17.1936 20.0396 17.1936L19.964 17.2692C19.8126 17.3449 19.6613 17.4963 19.5099 17.5719C19.3586 17.7233 19.2829 17.8746 19.1315 18.026C18.6018 18.7071 18.2991 19.5395 18.2991 20.3719C18.2991 20.9773 18.4504 21.5827 18.6775 22.1125L18.7531 22.3395C19.4342 23.7773 20.3423 25.0638 21.5531 26.199L21.8558 26.5017C22.0829 26.7287 22.3099 26.88 22.4613 27.1071C24.0504 28.4692 25.8667 29.453 27.9099 29.9827C28.1369 30.0584 28.4396 30.0584 28.6667 30.1341C28.8937 30.1341 29.1964 30.1341 29.4234 30.1341C29.8018 30.1341 30.2558 29.9827 30.5586 29.8314C30.7856 29.68 30.9369 29.68 31.0883 29.5287L31.2396 29.3773C31.391 29.226 31.5423 29.1503 31.6937 28.999C31.845 28.8476 31.9964 28.6963 32.0721 28.5449C32.2234 28.2422 32.2991 27.8638 32.3748 27.4855C32.3748 27.3341 32.3748 27.1071 32.3748 26.9557C32.3748 26.9557 32.2991 26.88 32.1477 26.8044Z" fill="white"/>
</svg>
