<svg width="158" height="158" viewBox="0 0 158 158" fill="none" xmlns="http://www.w3.org/2000/svg">
<g opacity="0.05">
<path d="M25.3387 79.0025C25.3387 85.723 19.8903 91.1711 13.1693 91.1711C6.44834 91.1711 1 85.723 1 79.0025C1 72.2821 6.44834 66.834 13.1693 66.834C19.8903 66.834 25.3387 72.2821 25.3387 79.0025Z" stroke="white" stroke-width="2"/>
<path d="M157 79.0025C157 85.723 151.551 91.1711 144.83 91.1711C138.109 91.1711 132.661 85.723 132.661 79.0025C132.661 72.2821 138.109 66.834 144.83 66.834C151.551 66.834 157 72.2821 157 79.0025Z" stroke="white" stroke-width="2"/>
<path d="M91.1639 13.1686C91.1639 19.889 85.7155 25.3371 78.9945 25.3371C72.2735 25.3371 66.8252 19.889 66.8252 13.1686C66.8252 6.4481 72.2735 1 78.9945 1C85.7155 1 91.1639 6.4481 91.1639 13.1686Z" stroke="white" stroke-width="2"/>
<path d="M91.1639 144.831C91.1639 151.551 85.7155 156.999 78.9945 156.999C72.2735 156.999 66.8252 151.551 66.8252 144.831C66.8252 138.11 72.2735 132.662 78.9945 132.662C85.7155 132.662 91.1639 138.11 91.1639 144.831Z" stroke="white" stroke-width="2"/>
<path d="M38.1961 99.9878C45.0028 91.2133 54.4483 84.872 65.1254 81.8883C65.6817 84.5885 67.0171 87.0764 68.9783 89.0375C70.9395 90.9986 73.4275 92.3339 76.1278 92.8901C73.144 103.567 66.8024 113.011 58.0273 119.818C49.2303 126.641 38.4728 130.436 27.3595 130.654C27.5771 119.541 31.3725 108.784 38.1961 99.9878Z" stroke="white" stroke-width="2"/>
<path d="M89.0135 89.0184C90.9703 87.0617 92.3042 84.5805 92.8627 81.8871C103.543 84.8628 112.993 91.1988 119.804 99.9708C126.632 108.764 130.431 119.52 130.651 130.632C119.538 130.413 108.782 126.617 99.9853 119.794C91.2102 112.988 84.868 103.543 81.8828 92.8672C84.5759 92.3087 87.0569 90.9749 89.0135 89.0184Z" stroke="white" stroke-width="2"/>
<path d="M68.9779 68.9812C67.0215 70.9375 65.6872 73.4177 65.1273 76.1103C54.4487 73.1316 45.0001 66.7947 38.1893 58.0233C31.3622 49.2307 27.5619 38.4767 27.3386 27.3652C38.4521 27.5812 49.2103 31.3756 58.0076 38.1991C66.7836 45.0061 73.1251 54.4527 76.1071 65.131C73.4145 65.6908 70.9342 67.025 68.9779 68.9812Z" stroke="white" stroke-width="2"/>
<path d="M89.0114 68.985C87.055 67.0287 84.5747 65.6945 81.882 65.1347C84.8608 54.4568 91.1981 45.0089 99.97 38.1985C108.763 31.3717 119.518 27.5716 130.63 27.3483C130.414 38.4611 126.619 49.2187 119.796 58.0154C112.988 66.7909 103.541 73.132 92.8619 76.1138C92.3021 73.4214 90.9678 70.9412 89.0114 68.985Z" stroke="white" stroke-width="2"/>
</g>
</svg>
