<svg width="18" height="16" viewBox="0 0 18 16" fill="none" xmlns="http://www.w3.org/2000/svg">
<path d="M1.19158 7.29956C5.84445 5.22977 8.94709 3.86524 10.4995 3.20596C14.932 1.3236 15.853 0.996613 16.4533 0.9857C16.5853 0.983441 16.8806 1.01685 17.0718 1.17528C17.2333 1.30906 17.2777 1.48977 17.2989 1.6166C17.3202 1.74343 17.3467 2.03237 17.3256 2.25813C17.0854 4.83494 16.0461 11.0882 15.5174 13.9743C15.2936 15.1955 14.8531 15.6049 14.4266 15.645C13.4997 15.7321 12.7959 15.0196 11.8982 14.4187C10.4934 13.4786 9.69984 12.8933 8.33628 11.9758C6.76046 10.9156 7.782 10.3328 8.68006 9.38047C8.91508 9.13123 12.9989 5.33862 13.0779 4.99457C13.0878 4.95154 13.097 4.79115 13.0037 4.70646C12.9103 4.62176 12.7726 4.65073 12.6732 4.67376C12.5323 4.70641 10.2882 6.22086 5.94088 9.2171C5.3039 9.6637 4.72694 9.88129 4.21001 9.86989C3.64013 9.85732 2.54391 9.5409 1.72898 9.27043C0.729439 8.93869 -0.0649766 8.7633 0.00419916 8.1999C0.0402301 7.90645 0.436023 7.60633 1.19158 7.29956Z" fill="white"/>
</svg>
