<svg width="49" height="49" viewBox="0 0 49 49" fill="none" xmlns="http://www.w3.org/2000/svg">
<rect x="0.5" y="0.652344" width="48" height="48" fill="#675DA9"/>
<path d="M36.254 12.8369C35.4601 12.107 32.2461 9.77017 25.0819 9.73815C25.0819 9.73815 16.6372 9.22597 12.5205 13.0033C10.2285 15.2954 9.42178 18.6438 9.33855 22.8053C9.25532 26.9605 9.14647 34.7521 16.6564 36.8649H16.6628L16.6564 40.0853C16.6564 40.0853 16.6116 41.3913 17.4695 41.6538C18.5067 41.9739 19.1213 40.9816 20.1137 39.9124C20.6579 39.3234 21.407 38.4655 21.9768 37.806C27.1114 38.235 31.0617 37.249 31.5099 37.1018C32.547 36.7624 38.418 36.0134 39.3719 28.2217C40.3579 20.206 38.8918 15.1289 36.254 12.8369ZM37.1247 27.6583C36.318 34.1631 31.5611 34.5728 30.684 34.8545C30.3126 34.9762 26.8425 35.8405 22.4762 35.5524C22.4762 35.5524 19.2238 39.477 18.2122 40.495C18.0521 40.6551 17.8665 40.7191 17.7448 40.6871C17.572 40.6423 17.5207 40.4374 17.5271 40.1365C17.5271 39.7011 17.5527 34.7777 17.5527 34.7777C17.5463 34.7777 17.5463 34.7777 17.5527 34.7777C11.1952 33.0171 11.5666 26.3842 11.637 22.9142C11.7074 19.4441 12.3605 16.5951 14.3004 14.6808C17.7768 11.5308 24.9539 11.9982 24.9539 11.9982C31.0105 12.0238 33.9107 13.8485 34.583 14.4567C36.8174 16.3774 37.957 20.9551 37.1247 27.6583Z" fill="white"/>
<path d="M28.0331 23.0358C27.8218 23.0358 27.6425 22.8694 27.6297 22.6517C27.5593 21.2752 26.9127 20.6029 25.5938 20.5325C25.3697 20.5197 25.1968 20.3276 25.2097 20.1036C25.2225 19.8795 25.4145 19.7066 25.6386 19.7194C27.38 19.8155 28.3532 20.8142 28.4428 22.6069C28.4556 22.831 28.2828 23.023 28.0587 23.0294C28.0459 23.0358 28.0395 23.0358 28.0331 23.0358Z" fill="white"/>
<path d="M30.1077 23.7276H30.1013C29.8772 23.7212 29.6979 23.5355 29.7043 23.3115C29.7363 21.9286 29.3394 20.8082 28.4943 19.8862C27.6556 18.9643 26.4968 18.4649 24.9666 18.3561C24.7425 18.3368 24.5761 18.1448 24.5953 17.9207C24.6145 17.6966 24.8065 17.5302 25.0306 17.5494C26.7593 17.6774 28.1229 18.2792 29.0961 19.342C30.0757 20.4112 30.5494 21.7493 30.5174 23.3307C30.511 23.5548 30.3254 23.7276 30.1077 23.7276Z" fill="white"/>
<path d="M32.232 24.5599C32.0079 24.5599 31.8287 24.3806 31.8287 24.1565C31.8095 21.6788 31.0988 19.7901 29.6519 18.3752C28.2241 16.9795 26.4123 16.2688 24.2803 16.2496C24.0562 16.2496 23.877 16.064 23.877 15.8399C23.877 15.6158 24.0626 15.4365 24.2803 15.4365C26.63 15.4557 28.6275 16.2432 30.2089 17.7926C31.7966 19.342 32.6097 21.4803 32.6354 24.1437C32.6418 24.3742 32.4625 24.5599 32.232 24.5599C32.2384 24.5599 32.2384 24.5599 32.232 24.5599Z" fill="white"/>
<path d="M25.6907 28.049C25.6907 28.049 26.2605 28.1003 26.5678 27.7225L27.1632 26.9734C27.4513 26.6021 28.1492 26.3652 28.8278 26.743C29.2055 26.9542 29.8906 27.3768 30.3131 27.6905C30.7677 28.0234 31.6896 28.7917 31.696 28.7981C32.1378 29.1694 32.2402 29.7136 31.9393 30.2963C31.9393 30.2963 31.9393 30.3027 31.9393 30.3091C31.632 30.8533 31.2159 31.3654 30.6973 31.8392C30.6909 31.8392 30.6909 31.8456 30.6845 31.8456C30.2555 32.2042 29.833 32.409 29.4232 32.4538C29.372 32.4667 29.3144 32.4667 29.2375 32.4667C29.0583 32.4667 28.879 32.441 28.6998 32.3834L28.6869 32.3642C28.0467 32.1849 26.9839 31.7368 25.2169 30.7572C24.0645 30.1234 23.1105 29.4768 22.2974 28.8301C21.8685 28.4908 21.4331 28.1131 20.9849 27.6649C20.9721 27.6521 20.9529 27.6329 20.9401 27.6201C20.9273 27.6073 20.9081 27.5881 20.8953 27.5753C20.8825 27.5625 20.8633 27.5433 20.8505 27.5304C20.8377 27.5176 20.8185 27.4984 20.8057 27.4856C20.3639 27.0375 19.9798 26.6021 19.6404 26.1731C18.9938 25.3665 18.3472 24.4061 17.7133 23.2537C16.7338 21.4802 16.2856 20.4174 16.1063 19.7836L16.0871 19.7708C16.0295 19.5915 16.0039 19.4123 16.0039 19.233C16.0039 19.1562 16.0039 19.0986 16.0167 19.0473C16.0679 18.6312 16.2728 18.215 16.6249 17.7861C16.6249 17.7797 16.6313 17.7797 16.6313 17.7733C17.1051 17.2483 17.6173 16.8385 18.1615 16.5312C18.1615 16.5312 18.1679 16.5312 18.1743 16.5312C18.7505 16.2303 19.2947 16.3327 19.6724 16.7745C19.6724 16.7745 20.4471 17.7028 20.7801 18.1574C21.0938 18.5864 21.5163 19.265 21.7276 19.6428C22.1053 20.3214 21.8685 21.0193 21.4971 21.3074L20.748 21.9028C20.3703 22.2101 20.4215 22.7799 20.4215 22.7799C20.4215 22.7799 21.5291 26.9927 25.6907 28.049Z" fill="white"/>
</svg>
