<svg width="19" height="20" viewBox="0 0 19 20" fill="none" xmlns="http://www.w3.org/2000/svg">
<path d="M16.1676 3.45992C14.4523 1.69415 12.0811 0.735596 9.6595 0.735596C4.51356 0.735596 0.376622 4.92298 0.427073 10.0185C0.427073 11.6329 0.881127 13.1969 1.63788 14.6095L0.326172 19.4023L5.21987 18.141C6.58203 18.8978 8.09554 19.2509 9.60905 19.2509C14.7045 19.2509 18.8415 15.0635 18.8415 9.96803C18.8415 7.49596 17.8829 5.17524 16.1676 3.45992ZM9.6595 17.6869C8.29734 17.6869 6.93518 17.3338 5.77482 16.6275L5.47212 16.4761L2.54599 17.2329L3.30275 14.3572L3.10095 14.0545C0.881127 10.4725 1.94059 5.73019 5.57302 3.51037C9.20545 1.29055 13.8973 2.35001 16.1172 5.98244C18.337 9.61487 17.2775 14.3068 13.6451 16.5266C12.4847 17.2833 11.0721 17.6869 9.6595 17.6869ZM14.0991 12.0869L13.5442 11.8347C13.5442 11.8347 12.737 11.4815 12.2325 11.2293C12.182 11.2293 12.1316 11.1788 12.0811 11.1788C11.9298 11.1788 11.8289 11.2293 11.728 11.2797C11.728 11.2797 11.6775 11.3302 10.9712 12.1374C10.9208 12.2383 10.8199 12.2887 10.719 12.2887H10.6685C10.6181 12.2887 10.5172 12.2383 10.4667 12.1878L10.2145 12.0869C9.6595 11.8347 9.155 11.532 8.7514 11.1284C8.6505 11.0275 8.49914 10.9266 8.39824 10.8257C8.04509 10.4725 7.69194 10.0689 7.43969 9.61487L7.38924 9.51397C7.33878 9.46352 7.33878 9.41307 7.28833 9.31217C7.28833 9.21127 7.28833 9.11037 7.33878 9.05992C7.33878 9.05992 7.54059 8.80767 7.69194 8.65632C7.79284 8.55542 7.84329 8.40406 7.94419 8.30316C8.04509 8.15181 8.09554 7.95001 8.04509 7.79866C7.99464 7.54641 7.38924 6.18424 7.23788 5.88154C7.13698 5.73019 7.03608 5.67974 6.88473 5.62929H6.73338C6.63248 5.62929 6.48113 5.62929 6.32978 5.62929C6.22887 5.62929 6.12797 5.67974 6.02707 5.67974L5.97662 5.73019C5.87572 5.78064 5.77482 5.88154 5.67392 5.93199C5.57302 6.03289 5.52257 6.13379 5.42167 6.23469C5.06851 6.68875 4.86671 7.2437 4.86671 7.79866C4.86671 8.20226 4.96761 8.60587 5.11896 8.95902L5.16942 9.11037C5.62347 10.0689 6.22887 10.9266 7.03608 11.6833L7.23788 11.8851C7.38924 12.0365 7.54059 12.1374 7.64149 12.2887C8.70095 13.1969 9.91176 13.8527 11.2739 14.2059C11.4253 14.2563 11.6271 14.2563 11.7784 14.3068C11.9298 14.3068 12.1316 14.3068 12.2829 14.3068C12.5352 14.3068 12.8379 14.2059 13.0397 14.105C13.191 14.0041 13.2919 14.0041 13.3928 13.9032L13.4937 13.8023C13.5946 13.7014 13.6955 13.6509 13.7964 13.55C13.8973 13.4491 13.9982 13.3482 14.0487 13.2473C14.1496 13.0455 14.2 12.7933 14.2505 12.541C14.2505 12.4401 14.2505 12.2887 14.2505 12.1878C14.2505 12.1878 14.2 12.1374 14.0991 12.0869Z" fill="white"/>
</svg>
