<svg width="22" height="23" viewBox="0 0 22 23" fill="none" xmlns="http://www.w3.org/2000/svg">
<path d="M18.8357 2.77521C18.3064 2.28863 16.1638 0.730729 11.3876 0.709388C11.3876 0.709388 5.75782 0.36793 3.01335 2.88618C1.48532 4.41421 0.947525 6.64649 0.892038 9.42084C0.836551 12.1909 0.763991 17.3854 5.77062 18.7939H5.77489L5.77062 20.9408C5.77062 20.9408 5.74075 21.8115 6.31269 21.9865C7.00414 22.1999 7.41389 21.5383 8.07547 20.8255C8.43826 20.4329 8.93765 19.8609 9.31752 19.4213C12.7406 19.7073 15.3741 19.05 15.6729 18.9518C16.3644 18.7256 20.2783 18.2262 20.9143 13.0318C21.5716 7.68794 20.5942 4.30324 18.8357 2.77521ZM19.4161 12.6562C18.8784 16.9927 15.7071 17.2658 15.1223 17.4536C14.8748 17.5347 12.5614 18.111 9.65044 17.9189C9.65044 17.9189 7.48218 20.5353 6.8078 21.214C6.7011 21.3207 6.57732 21.3633 6.49622 21.342C6.38098 21.3121 6.34683 21.1755 6.3511 20.9749C6.3511 20.6847 6.36817 17.4024 6.36817 17.4024C6.36391 17.4024 6.36391 17.4024 6.36817 17.4024C2.12982 16.2287 2.37738 11.8068 2.42433 9.4934C2.47128 7.18002 2.90664 5.28066 4.19991 4.00446C6.51756 1.90449 11.3022 2.21607 11.3022 2.21607C15.34 2.23315 17.2735 3.44959 17.7217 3.85507C19.2113 5.13554 19.971 8.18732 19.4161 12.6562Z" fill="white"/>
<path d="M13.3554 9.57442C13.2145 9.57442 13.095 9.46345 13.0865 9.31833C13.0395 8.40066 12.6084 7.9525 11.7292 7.90555C11.5798 7.89701 11.4646 7.76896 11.4731 7.61958C11.4816 7.47019 11.6097 7.35495 11.7591 7.36348C12.92 7.42751 13.5688 8.09335 13.6286 9.28845C13.6371 9.43784 13.5219 9.56589 13.3725 9.57016C13.3639 9.57442 13.3597 9.57442 13.3554 9.57442Z" fill="white"/>
<path d="M14.7375 10.0356H14.7332C14.5838 10.0313 14.4643 9.90757 14.4686 9.75818C14.4899 8.83624 14.2253 8.0893 13.6619 7.47468C13.1027 6.86006 12.3302 6.52713 11.3101 6.45457C11.1607 6.44177 11.0497 6.31372 11.0625 6.16433C11.0753 6.01495 11.2034 5.90397 11.3528 5.91678C12.5052 6.00214 13.4143 6.40336 14.0631 7.11188C14.7161 7.82467 15.032 8.71673 15.0106 9.77099C15.0064 9.92037 14.8826 10.0356 14.7375 10.0356Z" fill="white"/>
<path d="M16.155 10.5903C16.0056 10.5903 15.8861 10.4708 15.8861 10.3214C15.8733 8.66958 15.3995 7.41045 14.4349 6.46717C13.4831 5.5367 12.2752 5.06293 10.8539 5.05012C10.7045 5.05012 10.585 4.92634 10.585 4.77696C10.585 4.62757 10.7087 4.50806 10.8539 4.50806C12.4203 4.52086 13.752 5.04585 14.8062 6.07876C15.8648 7.11168 16.4068 8.53726 16.4239 10.3128C16.4282 10.4665 16.3087 10.5903 16.155 10.5903C16.1593 10.5903 16.1593 10.5903 16.155 10.5903Z" fill="white"/>
<path d="M11.7928 12.9164C11.7928 12.9164 12.1727 12.9505 12.3775 12.6987L12.7745 12.1993C12.9666 11.9518 13.4318 11.7939 13.8842 12.0457C14.136 12.1865 14.5927 12.4682 14.8744 12.6774C15.1775 12.8993 15.7921 13.4115 15.7964 13.4158C16.0909 13.6633 16.1592 14.0261 15.9586 14.4145C15.9586 14.4145 15.9586 14.4188 15.9586 14.4231C15.7537 14.7859 15.4763 15.1273 15.1305 15.4432C15.1263 15.4432 15.1263 15.4475 15.122 15.4475C14.836 15.6865 14.5543 15.8231 14.2812 15.8529C14.247 15.8615 14.2086 15.8615 14.1574 15.8615C14.0379 15.8615 13.9184 15.8444 13.7989 15.806L13.7903 15.7932C13.3635 15.6737 12.655 15.3749 11.4769 14.7219C10.7087 14.2993 10.0727 13.8682 9.53063 13.4371C9.24466 13.2109 8.95442 12.9591 8.65564 12.6603C8.64711 12.6518 8.6343 12.639 8.62576 12.6304C8.61723 12.6219 8.60442 12.6091 8.59589 12.6005C8.58735 12.592 8.57455 12.5792 8.56601 12.5707C8.55747 12.5621 8.54467 12.5493 8.53613 12.5408C8.24162 12.242 7.98553 11.9518 7.75931 11.6658C7.32822 11.128 6.89713 10.4878 6.47458 9.71949C5.82154 8.5372 5.52276 7.82867 5.40325 7.40611L5.39045 7.39758C5.35203 7.27807 5.33496 7.15856 5.33496 7.03905C5.33496 6.98783 5.33496 6.94941 5.3435 6.91527C5.37764 6.63783 5.51423 6.3604 5.74898 6.07443C5.74898 6.07016 5.75325 6.07016 5.75325 6.06589C6.0691 5.7159 6.41055 5.44273 6.77335 5.23786C6.77335 5.23786 6.77762 5.23786 6.78189 5.23786C7.16603 5.03725 7.52883 5.10554 7.78066 5.40005C7.78066 5.40005 8.29711 6.01894 8.51906 6.32198C8.7282 6.60796 9.00991 7.06039 9.15076 7.31221C9.40258 7.76465 9.24466 8.22988 8.9971 8.42195L8.49772 8.8189C8.24589 9.02377 8.28004 9.40365 8.28004 9.40365C8.28004 9.40365 9.01844 12.2121 11.7928 12.9164Z" fill="white"/>
</svg>
