<svg width="25" height="24" viewBox="0 0 25 24" fill="none" xmlns="http://www.w3.org/2000/svg">
<path d="M3.91408 13.4142C4.69509 12.6331 4.69509 11.3669 3.91408 10.5858C3.13306 9.80483 1.86678 9.80483 1.08576 10.5858C0.304746 11.3669 0.304746 12.6331 1.08576 13.4142C1.86678 14.1952 3.13306 14.1952 3.91408 13.4142Z" fill="#F3F3F6"/>
<path d="M23.9142 13.4141C24.6953 12.6331 24.6953 11.3668 23.9142 10.5858C23.1332 9.80482 21.8669 9.80482 21.0859 10.5858C20.3049 11.3669 20.3049 12.6331 21.0859 13.4141C21.8669 14.1952 23.1332 14.1952 23.9142 13.4141Z" fill="#F3F3F6"/>
<path d="M12.5001 3.99984C13.6046 3.99984 14.5 3.10444 14.5 1.99992C14.5 0.895394 13.6046 0 12.5001 0C11.3956 0 10.5002 0.895394 10.5002 1.99992C10.5002 3.10444 11.3956 3.99984 12.5001 3.99984Z" fill="#F3F3F6"/>
<path d="M12.5001 24C13.6046 24 14.5 23.1046 14.5 22.0001C14.5 20.8955 13.6046 20.0002 12.5001 20.0002C11.3956 20.0002 10.5002 20.8955 10.5002 22.0001C10.5002 23.1046 11.3956 24 12.5001 24Z" fill="#F3F3F6"/>
<path d="M10.5162 12.2479C7.05832 13.1297 4.49992 16.2665 4.49992 19.9999C8.23288 19.9999 11.368 17.4434 12.2519 13.9853C11.8105 13.9302 11.4 13.7295 11.0856 13.4147C10.7712 13.1 10.5709 12.6894 10.5162 12.2479Z" fill="#F3F3F6"/>
<path d="M14.4834 12.2479C14.4287 12.6892 14.2284 13.0997 13.9141 13.4143C13.5998 13.7289 13.1895 13.9297 12.7482 13.9848C13.6319 17.443 16.7668 19.9994 20.5002 19.9994C20.4998 16.2665 17.9414 13.1297 14.4834 12.2479Z" fill="#F3F3F6"/>
<path d="M10.5162 11.7511C10.5713 11.3101 10.7718 10.9 11.0861 10.5858C11.4004 10.2715 11.8104 10.071 12.2514 10.0159C11.3697 6.558 8.23288 3.9996 4.49944 3.9996C4.49992 7.73424 7.05832 10.8694 10.5162 11.7511Z" fill="#F3F3F6"/>
<path d="M12.7482 10.0159C13.1892 10.071 13.5993 10.2715 13.9136 10.5858C14.2278 10.9 14.4284 11.3101 14.4834 11.7511C17.9414 10.8694 20.4998 7.73424 20.4998 3.99912C16.7668 3.9996 13.63 6.558 12.7482 10.0159Z" fill="#F3F3F6"/>
</svg>
