<svg width="18" height="18" viewBox="0 0 18 18" fill="none" xmlns="http://www.w3.org/2000/svg">
<g clip-path="url(#clip0_2034_9860)">
<path d="M4.84125 14.25L1.5 16.875V3C1.5 2.80109 1.57902 2.61032 1.71967 2.46967C1.86032 2.32902 2.05109 2.25 2.25 2.25H15.75C15.9489 2.25 16.1397 2.32902 16.2803 2.46967C16.421 2.61032 16.5 2.80109 16.5 3V13.5C16.5 13.6989 16.421 13.8897 16.2803 14.0303C16.1397 14.171 15.9489 14.25 15.75 14.25H4.84125ZM4.32225 12.75H15V3.75H3V13.7888L4.32225 12.75ZM8.25 7.5H9.75V9H8.25V7.5ZM5.25 7.5H6.75V9H5.25V7.5ZM11.25 7.5H12.75V9H11.25V7.5Z" fill="#F3F3F6"/>
</g>
<defs>
<clipPath id="clip0_2034_9860">
<rect width="18" height="18" fill="white"/>
</clipPath>
</defs>
</svg>
