<svg width="34" height="23" viewBox="0 0 34 23" fill="none" xmlns="http://www.w3.org/2000/svg">
<path d="M33.6406 22.6523H18.6406V10.6758C18.6406 8.83203 18.9844 7.27734 19.6719 6.01172C20.3594 4.73047 21.2656 3.69922 22.3906 2.91797C23.5156 2.13672 24.7969 1.57422 26.2344 1.23047C27.6719 0.886719 29.1406 0.714844 30.6406 0.714844V7.65234C30.3281 7.66797 29.9922 7.72266 29.6328 7.81641C29.2891 7.91016 28.9688 8.06641 28.6719 8.28516C28.3906 8.50391 28.1484 8.80859 27.9453 9.19922C27.7578 9.57422 27.6641 10.0586 27.6641 10.6523H33.6406V22.6523ZM15.6406 22.6523H0.640625V10.6758C0.640625 8.83203 0.984375 7.27734 1.67188 6.01172C2.35938 4.73047 3.26562 3.69922 4.39062 2.91797C5.51562 2.13672 6.79688 1.57422 8.23438 1.23047C9.67188 0.886719 11.1406 0.714844 12.6406 0.714844V7.65234C12.3281 7.66797 11.9922 7.72266 11.6328 7.81641C11.2891 7.91016 10.9688 8.06641 10.6719 8.28516C10.3906 8.50391 10.1484 8.80859 9.94531 9.19922C9.75781 9.57422 9.66406 10.0586 9.66406 10.6523H15.6406V22.6523Z" fill="#000D10"/>
</svg>
