<svg width="33" height="32" viewBox="0 0 33 32" fill="none" xmlns="http://www.w3.org/2000/svg">
<g clip-path="url(#clip0_2023_9210)">
<path d="M27.1668 29.3334H24.5002V26.6667C24.5002 25.6058 24.0787 24.5884 23.3286 23.8383C22.5784 23.0881 21.561 22.6667 20.5002 22.6667H12.5002C11.4393 22.6667 10.4219 23.0881 9.67174 23.8383C8.92159 24.5884 8.50016 25.6058 8.50016 26.6667V29.3334H5.8335V26.6667C5.8335 24.8986 6.53588 23.2029 7.78612 21.9527C9.03636 20.7024 10.7321 20 12.5002 20H20.5002C22.2683 20 23.964 20.7024 25.2142 21.9527C26.4645 23.2029 27.1668 24.8986 27.1668 26.6667V29.3334ZM16.5002 17.3334C15.4496 17.3334 14.4093 17.1264 13.4387 16.7244C12.4681 16.3224 11.5862 15.7331 10.8433 14.9902C10.1004 14.2474 9.51116 13.3654 9.10913 12.3948C8.70709 11.4242 8.50016 10.3839 8.50016 9.33337C8.50016 8.2828 8.70709 7.24251 9.10913 6.27191C9.51116 5.3013 10.1004 4.41939 10.8433 3.67652C11.5862 2.93365 12.4681 2.34438 13.4387 1.94234C14.4093 1.5403 15.4496 1.33337 16.5002 1.33337C18.6219 1.33337 20.6567 2.17623 22.157 3.67652C23.6573 5.17681 24.5002 7.21164 24.5002 9.33337C24.5002 11.4551 23.6573 13.4899 22.157 14.9902C20.6567 16.4905 18.6219 17.3334 16.5002 17.3334ZM16.5002 14.6667C17.9147 14.6667 19.2712 14.1048 20.2714 13.1046C21.2716 12.1044 21.8335 10.7479 21.8335 9.33337C21.8335 7.91889 21.2716 6.56233 20.2714 5.56214C19.2712 4.56194 17.9147 4.00004 16.5002 4.00004C15.0857 4.00004 13.7291 4.56194 12.7289 5.56214C11.7287 6.56233 11.1668 7.91889 11.1668 9.33337C11.1668 10.7479 11.7287 12.1044 12.7289 13.1046C13.7291 14.1048 15.0857 14.6667 16.5002 14.6667Z" fill="#C1C7C9"/>
</g>
<defs>
<clipPath id="clip0_2023_9210">
<rect width="32" height="32" fill="white" transform="translate(0.5)"/>
</clipPath>
</defs>
</svg>
