<svg width="57" height="21" viewBox="0 0 57 21" fill="none" xmlns="http://www.w3.org/2000/svg">
<path d="M24.3926 12.0802C24.3926 14.7797 22.2808 16.7689 19.6891 16.7689C17.0975 16.7689 14.9857 14.7797 14.9857 12.0802C14.9857 9.36171 17.0975 7.39153 19.6891 7.39153C22.2808 7.39153 24.3926 9.36171 24.3926 12.0802ZM22.3337 12.0802C22.3337 10.3933 21.1097 9.23911 19.6891 9.23911C18.2686 9.23911 17.0446 10.3933 17.0446 12.0802C17.0446 13.7502 18.2686 14.9214 19.6891 14.9214C21.1097 14.9214 22.3337 13.7481 22.3337 12.0802Z" fill="#EA4335"/>
<path d="M34.5395 12.0802C34.5395 14.7797 32.4277 16.7689 29.836 16.7689C27.2443 16.7689 25.1325 14.7797 25.1325 12.0802C25.1325 9.36383 27.2443 7.39153 29.836 7.39153C32.4277 7.39153 34.5395 9.36171 34.5395 12.0802ZM32.4805 12.0802C32.4805 10.3933 31.2566 9.23911 29.836 9.23911C28.4155 9.23911 27.1915 10.3933 27.1915 12.0802C27.1915 13.7502 28.4155 14.9214 29.836 14.9214C31.2566 14.9214 32.4805 13.7481 32.4805 12.0802Z" fill="#FBBC05"/>
<path d="M44.2636 7.6748V16.0925C44.2636 19.5551 42.2215 20.9693 39.8074 20.9693C37.5349 20.9693 36.1672 19.4494 35.6514 18.2064L37.444 17.4602C37.7632 18.2233 38.5454 19.1238 39.8053 19.1238C41.3506 19.1238 42.3082 18.1705 42.3082 16.3757V15.7014H42.2363C41.7755 16.27 40.8876 16.7668 39.7672 16.7668C37.4229 16.7668 35.2751 14.7248 35.2751 12.0971C35.2751 9.4505 37.4229 7.39153 39.7672 7.39153C40.8855 7.39153 41.7734 7.88831 42.2363 8.44004H42.3082V7.67691H44.2636V7.6748ZM42.454 12.0971C42.454 10.4462 41.3527 9.23911 39.9512 9.23911C38.5306 9.23911 37.3404 10.4462 37.3404 12.0971C37.3404 13.7312 38.5306 14.9214 39.9512 14.9214C41.3527 14.9214 42.454 13.7312 42.454 12.0971Z" fill="#4285F4"/>
<path d="M47.4873 2.74088V16.4814H45.4791V2.74088H47.4873Z" fill="#34A853"/>
<path d="M55.3131 13.6234L56.9112 14.6888C56.3954 15.4519 55.1524 16.7668 53.0047 16.7668C50.3411 16.7668 48.3519 14.7078 48.3519 12.0781C48.3519 9.28984 50.358 7.38942 52.7743 7.38942C55.2074 7.38942 56.3975 9.32578 56.7865 10.3722L57 10.9049L50.7322 13.5008C51.2121 14.4415 51.9583 14.9214 53.0047 14.9214C54.0532 14.9214 54.7804 14.4056 55.3131 13.6234ZM50.394 11.9365L54.5838 10.1967C54.3534 9.61116 53.66 9.20317 52.844 9.20317C51.7976 9.20317 50.3411 10.127 50.394 11.9365Z" fill="#EA4335"/>
<path d="M7.38396 10.8605V8.87128H14.0872C14.1528 9.21796 14.1866 9.62806 14.1866 10.072C14.1866 11.5644 13.7786 13.4099 12.4637 14.7247C11.1848 16.0565 9.55073 16.7668 7.38607 16.7668C3.37383 16.7668 0 13.4987 0 9.48643C0 5.47419 3.37383 2.20605 7.38607 2.20605C9.6057 2.20605 11.1869 3.07699 12.3749 4.21217L10.9713 5.61582C10.1194 4.81676 8.96518 4.19526 7.38396 4.19526C4.45405 4.19526 2.16255 6.55652 2.16255 9.48643C2.16255 12.4163 4.45405 14.7776 7.38396 14.7776C9.28438 14.7776 10.3667 14.0145 11.0601 13.3211C11.6224 12.7588 11.9923 11.9555 12.1382 10.8584L7.38396 10.8605Z" fill="#4285F4"/>
</svg>
