<svg width="33" height="32" viewBox="0 0 33 32" fill="none" xmlns="http://www.w3.org/2000/svg">
<path fill-rule="evenodd" clip-rule="evenodd" d="M17.5043 2.57554C17.5543 2.02553 18.0407 1.62019 18.5907 1.67019L18.5001 2.66608C18.5907 1.67019 18.5901 1.67013 18.5907 1.67019L18.5931 1.67041L18.5957 1.67066L18.6019 1.67126L18.6177 1.67292C18.6298 1.67424 18.6449 1.676 18.6629 1.6783C18.699 1.68292 18.7469 1.68972 18.806 1.69957C18.9242 1.71927 19.0873 1.75115 19.2907 1.802C19.6977 1.90376 20.2653 2.08129 20.9569 2.38866C22.3424 3.00446 24.2121 4.13538 26.2783 6.20161C28.3446 8.26784 29.4755 10.1375 30.0913 11.523C30.3986 12.2146 30.5762 12.7822 30.6779 13.1892C30.7288 13.3927 30.7607 13.5558 30.7804 13.674C30.7902 13.7331 30.797 13.7809 30.8016 13.817C30.8039 13.835 30.8057 13.8501 30.807 13.8622L30.8087 13.878L30.8093 13.8842L30.8095 13.8869C30.8096 13.8875 30.8097 13.8893 29.8139 13.9798L30.8097 13.8893C30.8598 14.4393 30.4544 14.9257 29.9044 14.9757C29.357 15.0254 28.8727 14.6243 28.8187 14.0783C28.8186 14.077 28.8183 14.0745 28.8178 14.0708C28.8163 14.0593 28.8132 14.0365 28.8076 14.0028C28.7963 13.9354 28.7752 13.8244 28.7376 13.6743C28.6626 13.3742 28.522 12.9165 28.2636 12.3353C27.7481 11.1753 26.7577 9.5094 24.8641 7.61583C22.9705 5.72226 21.3047 4.73186 20.1446 4.21629C19.5634 3.95798 19.1057 3.81731 18.8056 3.74229C18.6555 3.70476 18.5446 3.6836 18.4772 3.67236C18.4435 3.66674 18.4206 3.66361 18.4092 3.66214C18.4055 3.66167 18.403 3.66137 18.4017 3.66122C18.4017 3.66122 18.4017 3.66122 18.4017 3.66122C17.8557 3.60728 17.4545 3.12291 17.5043 2.57554ZM6.79026 4.12215C8.42517 2.4009 11.1295 2.72339 12.4809 4.63483L14.1622 7.01281C15.2432 8.5417 15.1519 10.6673 13.8618 12.0255L13.5353 12.3692C13.5344 12.3716 13.5335 12.3742 13.5325 12.3769C13.5152 12.4254 13.4716 12.5798 13.5145 12.8728C13.6035 13.4802 14.0724 14.7144 15.9759 16.7185C17.8855 18.7289 19.0437 19.2027 19.5804 19.2899C19.812 19.3275 19.9331 19.2948 19.9717 19.2812L20.5165 18.7076C21.6816 17.481 23.4981 17.2394 24.9627 18.0824L27.51 19.5486C29.6872 20.8018 30.194 23.8674 28.454 25.6992L26.5599 27.6933C25.9688 28.3157 25.1627 28.847 24.1666 28.9453C21.7348 29.1853 16.1013 28.8727 10.1955 22.6549C4.68459 16.853 3.63768 11.8065 3.50534 9.34083C3.43995 8.1226 3.98299 7.07768 4.69746 6.32548L6.79026 4.12215ZM12.7543 11.7394L12.0293 11.0507L12.4117 10.6481C13.0057 10.0227 13.092 8.96352 12.5292 8.16743L10.8479 5.78945C10.1647 4.82325 8.93749 4.7656 8.24038 5.49953L6.14758 7.70285C5.70572 8.16804 5.47389 8.70124 5.50247 9.23364C5.61052 11.2467 6.47742 15.8364 11.6456 21.2775C17.0645 26.9826 22.0569 27.1438 23.9702 26.9549C24.3485 26.9176 24.7378 26.7077 25.1098 26.316L27.0039 24.3219C27.8209 23.4617 27.6068 21.9119 26.5123 21.282L23.965 19.8158C23.2814 19.4223 22.4806 19.5439 21.9667 20.0849L21.3594 20.7243L20.6343 20.0356C21.3594 20.7243 21.3585 20.7252 21.3575 20.7262L21.3556 20.7282L21.3517 20.7323L21.3433 20.7409L21.3241 20.7598C21.3104 20.773 21.2945 20.7877 21.2766 20.8034C21.2408 20.8348 21.1964 20.8707 21.1431 20.9085C21.0363 20.9842 20.8941 21.0675 20.7142 21.1385C20.3461 21.2836 19.8602 21.3615 19.2598 21.264C18.0898 21.074 16.5563 20.2336 14.5258 18.0959C12.4894 15.9519 11.7099 14.3522 11.5357 13.1627C11.447 12.5573 11.5179 12.0725 11.6482 11.7064C11.7123 11.5264 11.7879 11.3828 11.8577 11.2738C11.8925 11.2195 11.9256 11.174 11.9549 11.1369C11.9696 11.1184 11.9833 11.102 11.9958 11.0877L12.0135 11.0677L12.0217 11.0588L12.0255 11.0547L12.0274 11.0527C12.0283 11.0517 12.0293 11.0507 12.7543 11.7394ZM18.4812 7.10546C18.633 6.57442 19.1864 6.26693 19.7175 6.41865L19.4428 7.38001C19.7175 6.41865 19.717 6.41852 19.7175 6.41865L19.7194 6.41921L19.7214 6.4198L19.7259 6.42109L19.7362 6.42418L19.7626 6.4324C19.7827 6.43883 19.8078 6.4472 19.8378 6.45782C19.8976 6.47907 19.9768 6.50929 20.0739 6.5509C20.2681 6.63414 20.5335 6.7627 20.8595 6.95565C21.5122 7.34189 22.4031 7.98347 23.4497 9.03009C24.4963 10.0767 25.1379 10.9676 25.5241 11.6203C25.7171 11.9463 25.8457 12.2117 25.9289 12.4059C25.9705 12.503 26.0007 12.5822 26.022 12.642C26.0326 12.672 26.041 12.6971 26.0474 12.7172L26.0556 12.7436L26.0587 12.7539L26.06 12.7583L26.0606 12.7604C26.0607 12.7609 26.0611 12.7623 25.0996 13.037L26.0611 12.7623C26.2129 13.2933 25.9054 13.8468 25.3743 13.9986C24.8478 14.149 24.2992 13.848 24.142 13.3252L24.1371 13.3109C24.13 13.2908 24.1153 13.2514 24.0906 13.1938C24.0413 13.0787 23.9518 12.8904 23.803 12.6389C23.5057 12.1366 22.9688 11.3776 22.0355 10.4443C21.1022 9.51104 20.3432 8.9741 19.8409 8.6768C19.5894 8.52798 19.4011 8.43852 19.286 8.38919C19.2284 8.3645 19.189 8.34979 19.1689 8.34268L19.1545 8.33775C18.6318 8.18057 18.3308 7.63198 18.4812 7.10546ZM24.139 13.3149C24.139 13.3148 24.1391 13.3151 24.139 13.3149Z" fill="#C1C7C9"/>
</svg>
