<svg width="49" height="49" viewBox="0 0 49 49" fill="none" xmlns="http://www.w3.org/2000/svg">
<rect x="0.5" y="0.652344" width="48" height="48" fill="#419FD9"/>
<rect x="0.5" y="0.652344" width="48" height="48" fill="url(#paint0_linear_2065_8780)"/>
<path d="M11.2874 24.1233C18.2667 21.0186 22.9206 18.9718 25.2493 17.9829C31.8979 15.1593 33.2795 14.6689 34.18 14.6525C34.378 14.6491 34.8208 14.6992 35.1077 14.9369C35.3499 15.1375 35.4165 15.4086 35.4484 15.5989C35.4803 15.7891 35.52 16.2225 35.4884 16.5611C35.1281 20.4264 33.5692 29.8062 32.776 34.1353C32.4404 35.9671 31.7796 36.5813 31.1399 36.6414C29.7496 36.7721 28.6938 35.7033 27.3473 34.8021C25.2401 33.3918 24.0498 32.5139 22.0044 31.1377C19.6407 29.5473 21.173 28.6732 22.5201 27.2447C22.8726 26.8708 28.9983 21.1819 29.1169 20.6658C29.1317 20.6013 29.1455 20.3607 29.0055 20.2336C28.8655 20.1066 28.6589 20.15 28.5098 20.1846C28.2985 20.2336 24.9323 22.5052 18.4113 26.9996C17.4559 27.6695 16.5904 27.9959 15.815 27.9788C14.9602 27.9599 13.3159 27.4853 12.0935 27.0796C10.5942 26.582 9.40254 26.3189 9.5063 25.4738C9.56035 25.0336 10.154 24.5835 11.2874 24.1233Z" fill="white"/>
<defs>
<linearGradient id="paint0_linear_2065_8780" x1="24.5" y1="0.652344" x2="24.5" y2="48.2962" gradientUnits="userSpaceOnUse">
<stop stop-color="#2AABEE"/>
<stop offset="1" stop-color="#229ED9"/>
</linearGradient>
</defs>
</svg>
