<svg width="32" height="33" viewBox="0 0 32 33" fill="none" xmlns="http://www.w3.org/2000/svg">
<path d="M14.1139 14.7667C14.6139 14.2666 15.2923 13.9857 15.9993 13.9857C16.707 13.9857 17.3848 14.2666 17.8854 14.7667C18.3854 15.2668 18.666 15.9451 18.666 16.6523C18.666 17.3595 18.3854 18.0378 17.8854 18.5379C17.3848 19.038 16.707 19.319 15.9993 19.319C15.2923 19.319 14.6139 19.038 14.1139 18.5379C13.6139 18.0378 13.3327 17.3595 13.3327 16.6523C13.3327 15.9451 13.6139 15.2668 14.1139 14.7667Z" fill="white"/>
<path fill-rule="evenodd" clip-rule="evenodd" d="M12.418 9.59277C13.4414 9.54745 13.8001 9.54118 15.9993 9.54118C18.2565 9.54118 18.5996 9.54655 19.5807 9.59277C20.276 9.62476 20.7435 9.7181 21.179 9.88696C21.5423 10.0204 21.8704 10.2344 22.1393 10.5128C22.4167 10.7821 22.6302 11.1101 22.7643 11.4727C22.9329 11.9066 23.026 12.3759 23.0592 13.071C23.1042 14.0941 23.1107 14.4532 23.1107 16.6523C23.1107 18.9092 23.1055 19.2523 23.0592 20.2336C23.0404 20.6391 23.0007 20.9675 22.9368 21.2581C22.8919 21.4644 22.8346 21.6517 22.7643 21.8337C22.6165 22.2159 22.4375 22.4941 22.138 22.7936C21.8431 23.0888 21.5632 23.2674 21.1784 23.4176C20.9284 23.5142 20.6673 23.5862 20.3581 23.6362C20.1302 23.673 19.8763 23.6978 19.5807 23.7118C18.5579 23.7572 18.1986 23.7634 15.9993 23.7634C13.7428 23.7634 13.3997 23.7581 12.418 23.7118C11.7246 23.6799 11.2572 23.5856 10.8184 23.4159C10.4362 23.2683 10.1576 23.0897 9.85807 22.791C9.64388 22.5769 9.49154 22.3716 9.36654 22.1274C9.31966 22.0351 9.27604 21.9371 9.23438 21.831C9.06641 21.3981 8.97266 20.9297 8.9401 20.2336C8.89453 19.2105 8.88867 18.8514 8.88867 16.6523C8.88867 14.3954 8.89388 14.0523 8.9401 13.071C8.97201 12.375 9.0651 11.9083 9.23438 11.4727C9.36784 11.1097 9.58203 10.7816 9.86003 10.5128C10.1562 10.2159 10.4342 10.0372 10.8203 9.88786C11.2539 9.71899 11.7214 9.62565 12.418 9.59277ZM19.1426 13.5096C18.3086 12.6761 17.1784 12.2078 15.9993 12.2078C14.821 12.2078 13.6901 12.6761 12.8568 13.5096C12.0234 14.3431 11.5553 15.4736 11.5553 16.6523C11.5553 17.8311 12.0234 18.9615 12.8568 19.795C13.6901 20.6285 14.821 21.0968 15.9993 21.0968C17.1784 21.0968 18.3086 20.6285 19.1426 19.795C19.9759 18.9615 20.444 17.8311 20.444 16.6523C20.444 15.4736 19.9759 14.3431 19.1426 13.5096ZM21.4518 12.7713C21.6602 12.563 21.7773 12.2804 21.7773 11.9857C21.7773 11.691 21.6602 11.4084 21.4518 11.2C21.2435 10.9916 20.9609 10.8745 20.666 10.8745C20.5234 10.8745 20.3835 10.902 20.2533 10.954C20.1152 11.0094 19.9883 11.0925 19.8809 11.2C19.6719 11.4084 19.5553 11.691 19.5553 11.9857C19.5553 12.2804 19.6719 12.563 19.8809 12.7713C20.0892 12.9797 20.3717 13.0968 20.666 13.0968C20.8411 13.0968 21.0124 13.0555 21.1654 12.9783C21.2702 12.9255 21.3672 12.856 21.4518 12.7713Z" fill="white"/>
<path fill-rule="evenodd" clip-rule="evenodd" d="M16 32.6523C24.8366 32.6523 32 25.4889 32 16.6523C32 7.81576 24.8366 0.652344 16 0.652344C7.16341 0.652344 0 7.81576 0 16.6523C0 25.4889 7.16341 32.6523 16 32.6523ZM19.6634 7.81673C18.7161 7.7723 18.4147 7.76343 15.9993 7.76343C13.5846 7.76343 13.2832 7.77498 12.3353 7.81673C11.388 7.86117 10.7441 8.00968 10.1771 8.23006C9.58398 8.45296 9.04622 8.80273 8.60221 9.25496C8.14974 9.69881 7.79948 10.2365 7.57747 10.8301C7.35677 11.3972 7.20833 12.0408 7.16406 12.9883C7.11979 13.9359 7.11068 14.2372 7.11068 16.6523C7.11068 19.0675 7.1224 19.3687 7.16406 20.3163C7.20833 21.263 7.35677 21.9083 7.57747 22.4745C7.80013 23.0679 8.15039 23.6054 8.60221 24.0496C9.04622 24.502 9.58398 24.8519 10.1771 25.0745C10.7441 25.2941 11.3887 25.4434 12.3353 25.4879C13.2832 25.5323 13.5846 25.5412 15.9993 25.5412C18.4147 25.5412 18.7161 25.5296 19.6634 25.4879C20.61 25.4434 21.2559 25.2941 21.8216 25.0745C22.4147 24.8512 22.9525 24.5015 23.3971 24.0496C23.8496 23.6058 24.1992 23.0681 24.4219 22.4745C24.5378 22.1742 24.6341 21.8523 24.7064 21.4753C24.7702 21.1402 24.8145 20.7617 24.8353 20.3163C24.8796 19.3687 24.8887 19.0675 24.8887 16.6523C24.8887 14.2372 24.877 13.9359 24.8353 12.9883C24.7904 12.0417 24.6413 11.3963 24.4219 10.8301C24.1986 10.2368 23.849 9.6993 23.3971 9.25496C22.903 8.76164 22.4082 8.45589 21.8216 8.23006C21.2546 8.00968 20.61 7.86117 19.6634 7.81673Z" fill="white"/>
</svg>
