<svg width="139" height="20" viewBox="0 0 139 20" fill="none" xmlns="http://www.w3.org/2000/svg">
<path d="M2.21921 11.6669C3.16871 11.6669 3.93842 10.9206 3.93842 10C3.93842 9.0794 3.16871 8.33311 2.21921 8.33311C1.26972 8.33311 0.5 9.0794 0.5 10C0.5 10.9206 1.26972 11.6669 2.21921 11.6669Z" fill="#F2F4F4"/>
<path d="M19.4071 11.6669C20.3566 11.6669 21.1263 10.9206 21.1263 10C21.1263 9.0794 20.3566 8.33311 19.4071 8.33311C18.4576 8.33311 17.6879 9.0794 17.6879 10C17.6879 10.9206 18.4576 11.6669 19.4071 11.6669Z" fill="#F2F4F4"/>
<path d="M10.8125 3.33378C11.762 3.33378 12.5317 2.58749 12.5317 1.66689C12.5317 0.746293 11.762 0 10.8125 0C9.86298 0 9.09326 0.746293 9.09326 1.66689C9.09326 2.58749 9.86298 3.33378 10.8125 3.33378Z" fill="#F2F4F4"/>
<path d="M10.8125 20C11.762 20 12.5317 19.2537 12.5317 18.3331C12.5317 17.4125 11.762 16.6662 10.8125 16.6662C9.86298 16.6662 9.09326 17.4125 9.09326 18.3331C9.09326 19.2537 9.86298 20 10.8125 20Z" fill="#F2F4F4"/>
<path d="M9.10723 10.2072C7.62883 10.5753 6.31871 11.4097 5.38319 12.5791C4.44767 13.7484 3.93989 15.1863 3.93982 16.6662C5.46619 16.6661 6.94917 16.1738 8.15524 15.2668C9.36131 14.3597 10.2219 13.0895 10.6016 11.6561C10.2215 11.6108 9.86794 11.4436 9.59715 11.181C9.32637 10.9185 9.15392 10.5757 9.10723 10.2072Z" fill="#F2F4F4"/>
<path d="M12.5177 10.2072C12.4706 10.5748 12.2983 10.9167 12.0281 11.1786C11.7579 11.4406 11.4053 11.6077 11.0262 11.6534C11.406 13.0866 12.2667 14.3568 13.4727 15.2638C14.6787 16.1708 16.1616 16.6632 17.6879 16.6635C17.6876 15.1836 17.1793 13.7458 16.2432 12.5769C15.3071 11.4079 13.9964 10.5742 12.5177 10.2072Z" fill="#F2F4F4"/>
<path d="M9.10723 9.79282C9.1546 9.42528 9.32698 9.08353 9.59711 8.82162C9.86724 8.55971 10.2197 8.39257 10.5988 8.34665C10.2194 6.91312 9.35879 5.64274 8.15268 4.73565C6.94656 3.82856 5.46346 3.33633 3.93703 3.33649C3.93787 4.81631 4.44634 6.25382 5.38236 7.42268C6.31837 8.59154 7.62878 9.42535 9.10723 9.79282Z" fill="#F2F4F4"/>
<path d="M11.0262 8.34665C11.4052 8.39257 11.7577 8.55971 12.0278 8.82162C12.298 9.08353 12.4704 9.42528 12.5177 9.79282C13.9962 9.42493 15.3065 8.59055 16.2421 7.42114C17.1776 6.25173 17.6853 4.81376 17.6851 3.33378C16.1589 3.33461 14.6762 3.8276 13.4707 4.73513C12.2651 5.64266 11.4052 6.91319 11.0262 8.34665Z" fill="#F2F4F4"/>
<path d="M27.0374 2.40931L30.6574 12.3903L34.2397 2.40931H36.9735L31.9018 15.3883H29.3942L24.3036 2.40931H27.0374Z" fill="#F2F4F4"/>
<path d="M41.2429 15.5711C40.4511 15.5711 39.7346 15.4432 39.0936 15.1872C38.4525 14.9191 37.9058 14.5596 37.4533 14.1087C37.0008 13.6456 36.6488 13.1216 36.3975 12.5366C36.1586 11.9394 36.0392 11.3118 36.0392 10.6537C36.0392 9.73971 36.2466 8.90491 36.6614 8.14932C37.0888 7.39373 37.6921 6.79048 38.4714 6.33957C39.2633 5.87647 40.1934 5.64492 41.2618 5.64492C42.3428 5.64492 43.2666 5.87647 44.0333 6.33957C44.8001 6.79048 45.3846 7.39373 45.7868 8.14932C46.2016 8.89272 46.409 9.69705 46.409 10.5623C46.409 10.7086 46.4027 10.8609 46.3901 11.0193C46.3775 11.1656 46.365 11.2874 46.3524 11.3849H38.7165C38.7668 11.8724 38.9113 12.2989 39.1501 12.6646C39.4015 13.0302 39.7158 13.3105 40.0928 13.5054C40.4825 13.6883 40.8973 13.7797 41.3372 13.7797C41.84 13.7797 42.3113 13.6639 42.7513 13.4323C43.2038 13.1886 43.5117 12.8717 43.6751 12.4818L45.8433 13.0667C45.6045 13.5542 45.2589 13.9868 44.8064 14.3646C44.3664 14.7424 43.8448 15.041 43.2415 15.2604C42.6381 15.4675 41.972 15.5711 41.2429 15.5711ZM38.6599 9.83111H43.826C43.7757 9.34363 43.6311 8.92319 43.3923 8.56977C43.1661 8.20416 42.8644 7.92386 42.4873 7.72887C42.1102 7.5217 41.6892 7.41811 41.2241 7.41811C40.7716 7.41811 40.3568 7.5217 39.9797 7.72887C39.6152 7.92386 39.3135 8.20416 39.0747 8.56977C38.8485 8.92319 38.7102 9.34363 38.6599 9.83111Z" fill="#F2F4F4"/>
<path d="M51.3984 15.5711C50.5562 15.5711 49.7518 15.4371 48.985 15.169C48.2183 14.9008 47.5584 14.5048 47.0054 13.9807L47.9104 12.3903C48.5011 12.8534 49.0793 13.1947 49.6449 13.414C50.2231 13.6334 50.7762 13.7431 51.3041 13.7431C51.7943 13.7431 52.1839 13.6578 52.473 13.4872C52.7747 13.3165 52.9255 13.0606 52.9255 12.7194C52.9255 12.4878 52.8438 12.3111 52.6804 12.1893C52.517 12.0552 52.2782 11.9394 51.964 11.8419C51.6623 11.7444 51.2915 11.6348 50.8516 11.5129C50.1226 11.2813 49.513 11.0559 49.0228 10.8365C48.5325 10.6172 48.1617 10.343 47.9104 10.0139C47.6715 9.67268 47.5521 9.24004 47.5521 8.71601C47.5521 8.08229 47.7155 7.53998 48.0423 7.08906C48.3817 6.62596 48.8468 6.26645 49.4375 6.01052C50.0409 5.7546 50.7448 5.62664 51.5492 5.62664C52.2531 5.62664 52.9193 5.73632 53.5477 5.95568C54.1762 6.16286 54.7481 6.50409 55.2634 6.97938L54.2453 8.53321C53.7425 8.15541 53.2649 7.88121 52.8124 7.71059C52.3599 7.52779 51.9011 7.43639 51.4361 7.43639C51.1721 7.43639 50.9207 7.46686 50.6819 7.52779C50.4557 7.58872 50.2671 7.69231 50.1163 7.83855C49.978 7.97261 49.9089 8.1676 49.9089 8.42352C49.9089 8.65507 49.9717 8.83788 50.0974 8.97193C50.2357 9.0938 50.4368 9.20348 50.7008 9.30098C50.9773 9.39847 51.3104 9.50815 51.7 9.63002C52.4919 9.84939 53.1581 10.0748 53.6986 10.3064C54.2516 10.5379 54.6664 10.8243 54.9429 11.1656C55.2195 11.4946 55.3577 11.9516 55.3577 12.5366C55.3577 13.4872 54.9995 14.2306 54.283 14.7668C53.5666 15.303 52.605 15.5711 51.3984 15.5711Z" fill="#F2F4F4"/>
<path d="M66.0695 15.3883H63.543V10.0139C63.543 9.24614 63.4048 8.68554 63.1282 8.33212C62.8517 7.9787 62.4683 7.80199 61.9781 7.80199C61.6388 7.80199 61.2931 7.8873 60.9412 8.05792C60.6018 8.22853 60.2938 8.46618 60.0173 8.77085C59.7408 9.06333 59.5397 9.40457 59.414 9.79455V15.3883H56.8875V5.80944H59.1689V7.58263C59.4203 7.16828 59.7408 6.82095 60.1304 6.54065C60.5201 6.24817 60.9663 6.0288 61.4691 5.88256C61.9844 5.72413 62.5249 5.64492 63.0905 5.64492C63.7064 5.64492 64.2092 5.7546 64.5989 5.97396C65.0011 6.18114 65.3027 6.46753 65.5039 6.83314C65.7175 7.18656 65.8621 7.58872 65.9375 8.03964C66.0255 8.49055 66.0695 8.94756 66.0695 9.41066V15.3883Z" fill="#F2F4F4"/>
<path d="M67.399 12.5549C67.399 11.9333 67.5749 11.391 67.9269 10.9279C68.2914 10.4526 68.7942 10.087 69.4352 9.83111C70.0763 9.57518 70.8116 9.44722 71.6411 9.44722C72.0559 9.44722 72.477 9.47769 72.9044 9.53862C73.3317 9.59956 73.7025 9.69705 74.0168 9.83111V9.31926C74.0168 8.70991 73.8282 8.24072 73.4511 7.91168C73.0866 7.58263 72.5399 7.41811 71.8108 7.41811C71.2703 7.41811 70.755 7.50951 70.2648 7.69231C69.7746 7.87511 69.2592 8.14323 68.7188 8.49665L67.908 6.88798C68.5616 6.47363 69.2278 6.16286 69.9066 5.95568C70.5979 5.74851 71.3206 5.64492 72.0748 5.64492C73.4826 5.64492 74.5761 5.98615 75.3554 6.66862C76.1473 7.35108 76.5432 8.32603 76.5432 9.59346V12.6463C76.5432 12.9022 76.5872 13.085 76.6752 13.1947C76.7757 13.3044 76.9328 13.3714 77.1465 13.3958V15.3883C76.9203 15.4249 76.7129 15.4553 76.5243 15.4797C76.3484 15.5041 76.1975 15.5163 76.0719 15.5163C75.5691 15.5163 75.1857 15.4066 74.9217 15.1872C74.6704 14.9679 74.5132 14.6998 74.4504 14.3829L74.3938 13.8893C73.9665 14.4256 73.4323 14.8399 72.7912 15.1324C72.1502 15.4249 71.4966 15.5711 70.8304 15.5711C70.1768 15.5711 69.5861 15.4432 69.0581 15.1872C68.5428 14.9191 68.1343 14.5596 67.8326 14.1087C67.5435 13.6456 67.399 13.1277 67.399 12.5549ZM73.5454 13.0484C73.6837 12.9022 73.7968 12.756 73.8848 12.6097C73.9728 12.4635 74.0168 12.3294 74.0168 12.2075V11.2387C73.7151 11.1168 73.3883 11.0254 73.0363 10.9645C72.6844 10.8914 72.3513 10.8548 72.0371 10.8548C71.3835 10.8548 70.843 10.995 70.4156 11.2753C70.0008 11.5434 69.7934 11.9029 69.7934 12.3538C69.7934 12.5975 69.8626 12.8291 70.0008 13.0484C70.1391 13.2678 70.3402 13.4445 70.6042 13.5786C70.8681 13.7126 71.1824 13.7797 71.5469 13.7797C71.924 13.7797 72.2947 13.7126 72.6593 13.5786C73.0238 13.4323 73.3192 13.2556 73.5454 13.0484Z" fill="#F2F4F4"/>
<path d="M83.3015 15.3883V2.40931H89.2217C89.8376 2.40931 90.4032 2.53117 90.9185 2.77491C91.4465 3.01865 91.899 3.34769 92.276 3.76205C92.6657 4.1764 92.9611 4.6395 93.1622 5.15135C93.3759 5.6632 93.4827 6.18723 93.4827 6.72346C93.4827 7.27187 93.3821 7.80199 93.181 8.31384C92.9925 8.8135 92.716 9.25223 92.3514 9.63002C91.9869 10.0078 91.5596 10.3003 91.0694 10.5075L94.1237 15.3883H91.2579L88.5052 11.0376H85.9034V15.3883H83.3015ZM85.9034 8.82569H89.1651C89.4919 8.82569 89.781 8.73429 90.0324 8.55149C90.2838 8.3565 90.4849 8.10057 90.6357 7.78371C90.7866 7.46685 90.862 7.11344 90.862 6.72346C90.862 6.3091 90.774 5.94959 90.598 5.64492C90.4221 5.32806 90.1958 5.07823 89.9193 4.89543C89.6553 4.71262 89.3662 4.62122 89.052 4.62122H85.9034V8.82569Z" fill="#F2F4F4"/>
<path d="M99.6567 15.5711C98.8648 15.5711 98.1483 15.4432 97.5073 15.1872C96.8663 14.9191 96.3195 14.5596 95.867 14.1087C95.4145 13.6456 95.0625 13.1216 94.8112 12.5366C94.5723 11.9394 94.4529 11.3118 94.4529 10.6537C94.4529 9.73971 94.6603 8.90491 95.0751 8.14932C95.5025 7.39373 96.1058 6.79048 96.8851 6.33957C97.677 5.87647 98.6071 5.64492 99.6755 5.64492C100.756 5.64492 101.68 5.87647 102.447 6.33957C103.214 6.79048 103.798 7.39373 104.2 8.14932C104.615 8.89272 104.823 9.69705 104.823 10.5623C104.823 10.7086 104.816 10.8609 104.804 11.0193C104.791 11.1656 104.779 11.2874 104.766 11.3849H97.1302C97.1805 11.8724 97.325 12.2989 97.5639 12.6646C97.8152 13.0302 98.1295 13.3105 98.5066 13.5054C98.8962 13.6883 99.311 13.7797 99.7509 13.7797C100.254 13.7797 100.725 13.6639 101.165 13.4323C101.617 13.1886 101.925 12.8717 102.089 12.4818L104.257 13.0667C104.018 13.5542 103.673 13.9868 103.22 14.3646C102.78 14.7424 102.259 15.041 101.655 15.2604C101.052 15.4675 100.386 15.5711 99.6567 15.5711ZM97.0736 9.83111H102.24C102.189 9.34363 102.045 8.92319 101.806 8.56977C101.58 8.20416 101.278 7.92386 100.901 7.72887C100.524 7.5217 100.103 7.41811 99.6378 7.41811C99.1853 7.41811 98.7705 7.5217 98.3934 7.72887C98.0289 7.92386 97.7273 8.20416 97.4884 8.56977C97.2622 8.92319 97.1239 9.34363 97.0736 9.83111Z" fill="#F2F4F4"/>
<path d="M105.494 12.5549C105.494 11.9333 105.67 11.391 106.022 10.9279C106.387 10.4526 106.89 10.087 107.531 9.83111C108.172 9.57518 108.907 9.44722 109.737 9.44722C110.151 9.44722 110.573 9.47769 111 9.53862C111.427 9.59956 111.798 9.69705 112.112 9.83111V9.31926C112.112 8.70991 111.924 8.24072 111.547 7.91168C111.182 7.58263 110.635 7.41811 109.906 7.41811C109.366 7.41811 108.851 7.50951 108.36 7.69231C107.87 7.87511 107.355 8.14323 106.814 8.49665L106.004 6.88798C106.657 6.47363 107.323 6.16286 108.002 5.95568C108.693 5.74851 109.416 5.64492 110.17 5.64492C111.578 5.64492 112.672 5.98615 113.451 6.66862C114.243 7.35108 114.639 8.32603 114.639 9.59346V12.6463C114.639 12.9022 114.683 13.085 114.771 13.1947C114.871 13.3044 115.028 13.3714 115.242 13.3958V15.3883C115.016 15.4249 114.808 15.4553 114.62 15.4797C114.444 15.5041 114.293 15.5163 114.167 15.5163C113.665 15.5163 113.281 15.4066 113.017 15.1872C112.766 14.9679 112.609 14.6998 112.546 14.3829L112.489 13.8893C112.062 14.4256 111.528 14.8399 110.887 15.1324C110.246 15.4249 109.592 15.5711 108.926 15.5711C108.272 15.5711 107.682 15.4432 107.154 15.1872C106.638 14.9191 106.23 14.5596 105.928 14.1087C105.639 13.6456 105.494 13.1277 105.494 12.5549ZM111.641 13.0484C111.779 12.9022 111.892 12.756 111.98 12.6097C112.068 12.4635 112.112 12.3294 112.112 12.2075V11.2387C111.811 11.1168 111.484 11.0254 111.132 10.9645C110.78 10.8914 110.447 10.8548 110.133 10.8548C109.479 10.8548 108.938 10.995 108.511 11.2753C108.096 11.5434 107.889 11.9029 107.889 12.3538C107.889 12.5975 107.958 12.8291 108.096 13.0484C108.235 13.2678 108.436 13.4445 108.7 13.5786C108.964 13.7126 109.278 13.7797 109.642 13.7797C110.019 13.7797 110.39 13.7126 110.755 13.5786C111.119 13.4323 111.415 13.2556 111.641 13.0484Z" fill="#F2F4F4"/>
<path d="M116.792 2.0437H119.319V12.3172C119.319 12.756 119.394 13.0545 119.545 13.213C119.696 13.3592 119.903 13.4323 120.167 13.4323C120.368 13.4323 120.576 13.408 120.789 13.3592C121.003 13.3105 121.191 13.2495 121.355 13.1764L121.694 15.041C121.355 15.1994 120.959 15.3213 120.506 15.4066C120.054 15.4919 119.645 15.5346 119.281 15.5346C118.489 15.5346 117.873 15.3335 117.433 14.9313C117.006 14.517 116.792 13.932 116.792 13.1764V2.0437Z" fill="#F2F4F4"/>
<path d="M128.416 14.8947C128.202 14.9801 127.945 15.0776 127.643 15.1872C127.341 15.2969 127.015 15.3822 126.663 15.4432C126.323 15.5163 125.978 15.5528 125.626 15.5528C125.161 15.5528 124.733 15.4736 124.344 15.3152C123.954 15.1568 123.64 14.9069 123.401 14.5657C123.175 14.2123 123.062 13.7553 123.062 13.1947V7.69231H121.761V5.80944H123.062V2.70179H125.588V5.80944H127.662V7.69231H125.588V12.3721C125.601 12.7011 125.695 12.9388 125.871 13.085C126.047 13.2312 126.267 13.3044 126.531 13.3044C126.795 13.3044 127.052 13.2617 127.304 13.1764C127.555 13.0911 127.756 13.018 127.907 12.957L128.416 14.8947Z" fill="#F2F4F4"/>
<path d="M129.714 17.2529C129.94 17.3017 130.148 17.3443 130.336 17.3809C130.537 17.4174 130.707 17.4357 130.845 17.4357C131.084 17.4357 131.279 17.3748 131.43 17.2529C131.593 17.1432 131.75 16.936 131.901 16.6314C132.052 16.3389 132.209 15.9245 132.372 15.3883L128.47 5.80944H131.09L133.749 12.8839L136.087 5.80944H138.5L134.352 17.2895C134.201 17.716 133.969 18.0999 133.654 18.4411C133.353 18.7945 132.969 19.0688 132.504 19.2637C132.052 19.4709 131.543 19.5745 130.977 19.5745C130.776 19.5745 130.575 19.5562 130.374 19.5197C130.173 19.4953 129.953 19.4465 129.714 19.3734V17.2529Z" fill="#F2F4F4"/>
</svg>
