<svg width="207" height="31" viewBox="0 0 207 31" fill="none" xmlns="http://www.w3.org/2000/svg">
<path d="M2.57882 18.1527C4.00306 18.1527 5.15763 17.0332 5.15763 15.6523C5.15763 14.2714 4.00306 13.152 2.57882 13.152C1.15458 13.152 0 14.2714 0 15.6523C0 17.0332 1.15458 18.1527 2.57882 18.1527Z" fill="white"/>
<path d="M28.3607 18.1527C29.7849 18.1527 30.9395 17.0332 30.9395 15.6523C30.9395 14.2714 29.7849 13.152 28.3607 13.152C26.9365 13.152 25.7819 14.2714 25.7819 15.6523C25.7819 17.0332 26.9365 18.1527 28.3607 18.1527Z" fill="white"/>
<path d="M15.4687 5.65302C16.893 5.65302 18.0475 4.53358 18.0475 3.15268C18.0475 1.77178 16.893 0.652344 15.4687 0.652344C14.0445 0.652344 12.8899 1.77178 12.8899 3.15268C12.8899 4.53358 14.0445 5.65302 15.4687 5.65302Z" fill="white"/>
<path d="M15.4687 30.6523C16.893 30.6523 18.0475 29.5329 18.0475 28.152C18.0475 26.7711 16.893 25.6517 15.4687 25.6517C14.0445 25.6517 12.8899 26.7711 12.8899 28.152C12.8899 29.5329 14.0445 30.6523 15.4687 30.6523Z" fill="white"/>
<path d="M12.9108 15.9631C10.6932 16.5153 8.72807 17.7669 7.32478 19.521C5.9215 21.275 5.15983 23.4318 5.15973 25.6517C7.44928 25.6516 9.67376 24.9131 11.4829 23.5525C13.292 22.1919 14.5829 20.2865 15.1524 18.1364C14.5822 18.0685 14.0519 17.8177 13.6457 17.4239C13.2396 17.0301 12.9809 16.5159 12.9108 15.9631Z" fill="white"/>
<path d="M18.0266 15.9631C17.9559 16.5146 17.6974 17.0274 17.2922 17.4203C16.8869 17.8132 16.358 18.0638 15.7892 18.1324C16.359 20.2823 17.6501 22.1875 19.4591 23.548C21.2681 24.9085 23.4924 25.6472 25.7819 25.6476C25.7813 23.4277 25.0189 21.2711 23.6148 19.5177C22.2106 17.7642 20.2446 16.5137 18.0266 15.9631Z" fill="white"/>
<path d="M12.9108 15.3416C12.9819 14.7903 13.2405 14.2776 13.6457 13.8848C14.0509 13.4919 14.5796 13.2412 15.1482 13.1723C14.579 11.022 13.2882 9.11646 11.479 7.75582C9.66984 6.39519 7.44519 5.65683 5.15554 5.65708C5.15681 7.8768 5.91951 10.0331 7.32353 11.7864C8.72756 13.5396 10.6932 14.7904 12.9108 15.3416Z" fill="white"/>
<path d="M15.7892 13.1723C16.3578 13.2412 16.8866 13.4919 17.2918 13.8848C17.697 14.2776 17.9555 14.7903 18.0266 15.3416C20.2444 14.7897 22.2097 13.5382 23.6131 11.7841C25.0164 10.0299 25.778 7.87299 25.7777 5.65302C23.4883 5.65425 21.2644 6.39374 19.456 7.75504C17.6477 9.11634 16.3577 11.0221 15.7892 13.1723Z" fill="white"/>
<path d="M39.8062 4.2663L45.2361 19.2379L50.6095 4.2663H54.7103L47.1027 23.7348H43.3413L35.7054 4.2663H39.8062Z" fill="white"/>
<path d="M61.1144 24.009C59.9266 24.009 58.8519 23.8171 57.8904 23.4332C56.9288 23.031 56.1087 22.4918 55.4299 21.8154C54.7512 21.1207 54.2233 20.3347 53.8462 19.4572C53.488 18.5615 53.3088 17.6201 53.3088 16.6329C53.3088 15.2619 53.6199 14.0097 54.2421 12.8763C54.8831 11.7429 55.7881 10.8381 56.9571 10.1617C58.1449 9.46705 59.5401 9.11972 61.1427 9.11972C62.7641 9.11972 64.1499 9.46705 65.3 10.1617C66.4501 10.8381 67.3268 11.7429 67.9302 12.8763C68.5523 13.9914 68.8634 15.1979 68.8634 16.4958C68.8634 16.7152 68.854 16.9437 68.8352 17.1813C68.8163 17.4007 68.7974 17.5835 68.7786 17.7297H57.3248C57.4002 18.461 57.617 19.1008 57.9752 19.6492C58.3523 20.1976 58.8237 20.618 59.3893 20.9105C59.9737 21.1847 60.5959 21.3218 61.2558 21.3218C62.01 21.3218 62.717 21.1482 63.3769 20.8008C64.0557 20.4352 64.5176 19.9599 64.7627 19.375L68.015 20.2524C67.6568 20.9836 67.1383 21.6326 66.4595 22.1993C65.7997 22.766 65.0172 23.2138 64.1122 23.5429C63.2072 23.8536 62.208 24.009 61.1144 24.009ZM57.2399 15.399H64.9889C64.9135 14.6678 64.6967 14.0371 64.3385 13.507C63.9991 12.9586 63.5466 12.5381 62.981 12.2457C62.4153 11.9349 61.7837 11.7795 61.0861 11.7795C60.4074 11.7795 59.7852 11.9349 59.2196 12.2457C58.6728 12.5381 58.2203 12.9586 57.8621 13.507C57.5227 14.0371 57.3153 14.6678 57.2399 15.399Z" fill="white"/>
<path d="M76.3475 24.009C75.0843 24.009 73.8777 23.8079 72.7276 23.4058C71.5775 23.0036 70.5876 22.4095 69.758 21.6234L71.1155 19.2379C72.0017 19.9325 72.869 20.4444 73.7174 20.7734C74.5847 21.1025 75.4143 21.267 76.2061 21.267C76.9414 21.267 77.5259 21.139 77.9596 20.8831C78.4121 20.6272 78.6383 20.2433 78.6383 19.7314C78.6383 19.3841 78.5158 19.119 78.2707 18.9362C78.0256 18.7352 77.6673 18.5615 77.196 18.4153C76.7435 18.269 76.1873 18.1045 75.5274 17.9217C74.4339 17.5744 73.5194 17.2362 72.7841 16.9071C72.0488 16.5781 71.4926 16.1668 71.1155 15.6732C70.7573 15.1614 70.5782 14.5124 70.5782 13.7264C70.5782 12.7758 70.8233 11.9623 71.3135 11.2859C71.8226 10.5913 72.5202 10.052 73.4063 9.66813C74.3113 9.28424 75.3671 9.0923 76.5738 9.0923C77.6296 9.0923 78.6289 9.25682 79.5716 9.58587C80.5143 9.89663 81.3722 10.4085 82.1452 11.1214L80.618 13.4522C79.8638 12.8855 79.1474 12.4742 78.4686 12.2182C77.7899 11.944 77.1017 11.8069 76.4041 11.8069C76.0082 11.8069 75.6311 11.8526 75.2729 11.944C74.9335 12.0354 74.6507 12.1908 74.4244 12.4102C74.217 12.6113 74.1133 12.9037 74.1133 13.2876C74.1133 13.635 74.2076 13.9092 74.3961 14.1102C74.6035 14.293 74.9052 14.4576 75.3011 14.6038C75.7159 14.7501 76.2156 14.9146 76.8 15.0974C77.9878 15.4264 78.9871 15.7646 79.7978 16.1119C80.6274 16.4593 81.2496 16.8888 81.6644 17.4007C82.0792 17.8943 82.2866 18.5798 82.2866 19.4572C82.2866 20.8831 81.7492 21.9982 80.6745 22.8025C79.5999 23.6069 78.1575 24.009 76.3475 24.009Z" fill="white"/>
<path d="M98.3542 23.7348H94.5645V15.6732C94.5645 14.5215 94.3571 13.6807 93.9424 13.1505C93.5276 12.6204 92.9525 12.3553 92.2172 12.3553C91.7082 12.3553 91.1897 12.4833 90.6618 12.7392C90.1527 12.9951 89.6908 13.3516 89.276 13.8086C88.8612 14.2473 88.5595 14.7592 88.371 15.3442V23.7348H84.5813V9.3665H88.0033V12.0263C88.3804 11.4048 88.8612 10.8838 89.4457 10.4633C90.0301 10.0246 90.6995 9.69555 91.4536 9.47619C92.2266 9.23854 93.0374 9.11972 93.8858 9.11972C94.8096 9.11972 95.5638 9.28424 96.1483 9.61329C96.7516 9.92405 97.2041 10.3536 97.5058 10.9021C97.8263 11.4322 98.0431 12.0354 98.1562 12.7118C98.2882 13.3882 98.3542 14.0737 98.3542 14.7683V23.7348Z" fill="white"/>
<path d="M100.348 19.4847C100.348 18.5524 100.612 17.7389 101.14 17.0442C101.687 16.3313 102.441 15.7829 103.403 15.399C104.364 15.0151 105.467 14.8232 106.712 14.8232C107.334 14.8232 107.966 14.8689 108.607 14.9603C109.248 15.0517 109.804 15.1979 110.275 15.399V14.6312C110.275 13.7172 109.992 13.0134 109.427 12.5199C108.88 12.0263 108.06 11.7795 106.966 11.7795C106.156 11.7795 105.382 11.9166 104.647 12.1908C103.912 12.465 103.139 12.8672 102.328 13.3973L101.112 10.9843C102.092 10.3628 103.092 9.89663 104.11 9.58587C105.147 9.2751 106.231 9.11972 107.362 9.11972C109.474 9.11972 111.114 9.63157 112.283 10.6553C113.471 11.679 114.065 13.1414 114.065 15.0425V19.6218C114.065 20.0056 114.131 20.2798 114.263 20.4444C114.414 20.6089 114.649 20.7094 114.97 20.746V23.7348C114.63 23.7897 114.319 23.8354 114.037 23.8719C113.773 23.9085 113.546 23.9268 113.358 23.9268C112.604 23.9268 112.029 23.7622 111.633 23.4332C111.256 23.1041 111.02 22.702 110.926 22.2267L110.841 21.4863C110.2 22.2907 109.398 22.9122 108.437 23.3509C107.475 23.7897 106.495 24.009 105.496 24.009C104.515 24.009 103.629 23.8171 102.837 23.4332C102.064 23.031 101.451 22.4918 100.999 21.8154C100.565 21.1207 100.348 20.3438 100.348 19.4847ZM109.568 20.225C109.775 20.0056 109.945 19.7863 110.077 19.5669C110.209 19.3475 110.275 19.1465 110.275 18.9637V17.5104C109.823 17.3276 109.332 17.1905 108.805 17.0991C108.277 16.9894 107.777 16.9345 107.306 16.9345C106.325 16.9345 105.514 17.1448 104.873 17.5652C104.251 17.9674 103.94 18.5067 103.94 19.183C103.94 19.5486 104.044 19.896 104.251 20.225C104.459 20.554 104.76 20.8191 105.156 21.0202C105.552 21.2213 106.024 21.3218 106.57 21.3218C107.136 21.3218 107.692 21.2213 108.239 21.0202C108.786 20.8008 109.229 20.5358 109.568 20.225Z" fill="white"/>
<path d="M124.202 23.7348V4.2663H133.083C134.006 4.2663 134.855 4.44911 135.628 4.81471C136.42 5.18032 137.098 5.67389 137.664 6.29542C138.249 6.91694 138.692 7.6116 138.993 8.37937C139.314 9.14714 139.474 9.9332 139.474 10.7375C139.474 11.5601 139.323 12.3553 139.022 13.1231C138.739 13.8726 138.324 14.5307 137.777 15.0974C137.23 15.6641 136.589 16.1028 135.854 16.4136L140.436 23.7348H136.137L132.008 17.2088H128.105V23.7348H124.202ZM128.105 13.8909H132.998C133.488 13.8909 133.922 13.7538 134.299 13.4796C134.676 13.1871 134.977 12.8032 135.204 12.3279C135.43 11.8526 135.543 11.3225 135.543 10.7375C135.543 10.116 135.411 9.57673 135.147 9.11972C134.883 8.64443 134.544 8.26969 134.129 7.99548C133.733 7.72128 133.299 7.58418 132.828 7.58418H128.105V13.8909Z" fill="white"/>
<path d="M148.735 24.009C147.547 24.009 146.473 23.8171 145.511 23.4332C144.549 23.031 143.729 22.4918 143.05 21.8154C142.372 21.1207 141.844 20.3347 141.467 19.4572C141.109 18.5615 140.929 17.6201 140.929 16.6329C140.929 15.2619 141.24 14.0097 141.863 12.8763C142.504 11.7429 143.409 10.8381 144.578 10.1617C145.765 9.46705 147.161 9.11972 148.763 9.11972C150.385 9.11972 151.77 9.46705 152.921 10.1617C154.071 10.8381 154.947 11.7429 155.551 12.8763C156.173 13.9914 156.484 15.1979 156.484 16.4958C156.484 16.7152 156.475 16.9437 156.456 17.1813C156.437 17.4007 156.418 17.5835 156.399 17.7297H144.945C145.021 18.461 145.238 19.1008 145.596 19.6492C145.973 20.1976 146.444 20.618 147.01 20.9105C147.594 21.1847 148.216 21.3218 148.876 21.3218C149.631 21.3218 150.338 21.1482 150.997 20.8008C151.676 20.4352 152.138 19.9599 152.383 19.375L155.636 20.2524C155.277 20.9836 154.759 21.6326 154.08 22.1993C153.42 22.766 152.638 23.2138 151.733 23.5429C150.828 23.8536 149.829 24.009 148.735 24.009ZM144.86 15.399H152.609C152.534 14.6678 152.317 14.0371 151.959 13.507C151.62 12.9586 151.167 12.5381 150.602 12.2457C150.036 11.9349 149.404 11.7795 148.707 11.7795C148.028 11.7795 147.406 11.9349 146.84 12.2457C146.293 12.5381 145.841 12.9586 145.483 13.507C145.143 14.0371 144.936 14.6678 144.86 15.399Z" fill="white"/>
<path d="M157.492 19.4847C157.492 18.5524 157.756 17.7389 158.284 17.0442C158.83 16.3313 159.585 15.7829 160.546 15.399C161.508 15.0151 162.611 14.8232 163.855 14.8232C164.477 14.8232 165.109 14.8689 165.75 14.9603C166.391 15.0517 166.947 15.1979 167.418 15.399V14.6312C167.418 13.7172 167.136 13.0134 166.57 12.5199C166.023 12.0263 165.203 11.7795 164.11 11.7795C163.299 11.7795 162.526 11.9166 161.79 12.1908C161.055 12.465 160.282 12.8672 159.471 13.3973L158.255 10.9843C159.236 10.3628 160.235 9.89663 161.253 9.58587C162.29 9.2751 163.374 9.11972 164.505 9.11972C166.617 9.11972 168.257 9.63157 169.426 10.6553C170.614 11.679 171.208 13.1414 171.208 15.0425V19.6218C171.208 20.0056 171.274 20.2798 171.406 20.4444C171.557 20.6089 171.793 20.7094 172.113 20.746V23.7348C171.774 23.7897 171.463 23.8354 171.18 23.8719C170.916 23.9085 170.69 23.9268 170.501 23.9268C169.747 23.9268 169.172 23.7622 168.776 23.4332C168.399 23.1041 168.163 22.702 168.069 22.2267L167.984 21.4863C167.343 22.2907 166.542 22.9122 165.58 23.3509C164.619 23.7897 163.638 24.009 162.639 24.009C161.658 24.009 160.772 23.8171 159.98 23.4332C159.207 23.031 158.595 22.4918 158.142 21.8154C157.709 21.1207 157.492 20.3438 157.492 19.4847ZM166.711 20.225C166.919 20.0056 167.088 19.7863 167.22 19.5669C167.352 19.3475 167.418 19.1465 167.418 18.9637V17.5104C166.966 17.3276 166.476 17.1905 165.948 17.0991C165.42 16.9894 164.92 16.9345 164.449 16.9345C163.468 16.9345 162.658 17.1448 162.017 17.5652C161.395 17.9674 161.083 18.5067 161.083 19.183C161.083 19.5486 161.187 19.896 161.395 20.225C161.602 20.554 161.904 20.8191 162.3 21.0202C162.695 21.2213 163.167 21.3218 163.714 21.3218C164.279 21.3218 164.835 21.2213 165.382 21.0202C165.929 20.8008 166.372 20.5358 166.711 20.225Z" fill="white"/>
<path d="M174.438 3.71789H178.228V19.1282C178.228 19.7863 178.341 20.2341 178.567 20.4718C178.794 20.6912 179.105 20.8008 179.501 20.8008C179.802 20.8008 180.113 20.7643 180.434 20.6912C180.754 20.618 181.037 20.5266 181.282 20.4169L181.791 23.2138C181.282 23.4515 180.688 23.6343 180.01 23.7622C179.331 23.8902 178.718 23.9542 178.171 23.9542C176.984 23.9542 176.06 23.6526 175.4 23.0493C174.759 22.4278 174.438 21.5503 174.438 20.4169V3.71789Z" fill="white"/>
<path d="M191.874 22.9945C191.554 23.1224 191.167 23.2687 190.715 23.4332C190.262 23.5977 189.772 23.7257 189.244 23.8171C188.735 23.9268 188.217 23.9816 187.689 23.9816C186.991 23.9816 186.35 23.8628 185.766 23.6251C185.181 23.3875 184.71 23.0127 184.352 22.5009C184.012 21.9708 183.842 21.2853 183.842 20.4444V12.1908H181.891V9.3665H183.842V4.70503H187.632V9.3665H190.743V12.1908H187.632V19.2104C187.651 19.704 187.792 20.0605 188.056 20.2798C188.32 20.4992 188.65 20.6089 189.046 20.6089C189.442 20.6089 189.829 20.5449 190.206 20.4169C190.583 20.289 190.884 20.1793 191.111 20.0879L191.874 22.9945Z" fill="white"/>
<path d="M193.821 26.5317C194.16 26.6048 194.471 26.6688 194.754 26.7236C195.056 26.7785 195.31 26.8059 195.518 26.8059C195.876 26.8059 196.168 26.7145 196.395 26.5317C196.64 26.3672 196.875 26.0564 197.102 25.5994C197.328 25.1607 197.564 24.5392 197.809 23.7348L191.954 9.3665H195.886L199.873 19.9782L203.38 9.3665H207L200.778 26.5865C200.552 27.2264 200.203 27.8022 199.732 28.314C199.279 28.8442 198.704 29.2555 198.007 29.548C197.328 29.8587 196.564 30.0141 195.716 30.0141C195.414 30.0141 195.113 29.9867 194.811 29.9318C194.509 29.8953 194.179 29.8222 193.821 29.7125V26.5317Z" fill="white"/>
</svg>
