<svg width="138" height="20" viewBox="0 0 138 20" fill="none" xmlns="http://www.w3.org/2000/svg">
<path d="M1.71921 11.6669C2.6687 11.6669 3.43842 10.9206 3.43842 10C3.43842 9.0794 2.6687 8.33311 1.71921 8.33311C0.769717 8.33311 0 9.0794 0 10C0 10.9206 0.769717 11.6669 1.71921 11.6669Z" fill="#000D10"/>
<path d="M18.9071 11.6669C19.8566 11.6669 20.6263 10.9206 20.6263 10C20.6263 9.0794 19.8566 8.33311 18.9071 8.33311C17.9576 8.33311 17.1879 9.0794 17.1879 10C17.1879 10.9206 17.9576 11.6669 18.9071 11.6669Z" fill="#000D10"/>
<path d="M10.3125 3.33378C11.262 3.33378 12.0317 2.58749 12.0317 1.66689C12.0317 0.746293 11.262 0 10.3125 0C9.36298 0 8.59326 0.746293 8.59326 1.66689C8.59326 2.58749 9.36298 3.33378 10.3125 3.33378Z" fill="#000D10"/>
<path d="M10.3125 20C11.262 20 12.0317 19.2537 12.0317 18.3331C12.0317 17.4125 11.262 16.6662 10.3125 16.6662C9.36298 16.6662 8.59326 17.4125 8.59326 18.3331C8.59326 19.2537 9.36298 20 10.3125 20Z" fill="#000D10"/>
<path d="M8.60723 10.2072C7.12883 10.5753 5.81871 11.4097 4.88319 12.5791C3.94767 13.7484 3.43989 15.1863 3.43982 16.6662C4.96619 16.6661 6.44917 16.1738 7.65524 15.2668C8.86131 14.3597 9.72193 13.0895 10.1016 11.6561C9.7215 11.6108 9.36794 11.4436 9.09715 11.181C8.82637 10.9185 8.65392 10.5757 8.60723 10.2072Z" fill="#000D10"/>
<path d="M12.0177 10.2072C11.9706 10.5748 11.7983 10.9167 11.5281 11.1786C11.2579 11.4406 10.9053 11.6077 10.5262 11.6534C10.906 13.0866 11.7667 14.3568 12.9727 15.2638C14.1787 16.1708 15.6616 16.6632 17.1879 16.6635C17.1876 15.1836 16.6793 13.7458 15.7432 12.5769C14.8071 11.4079 13.4964 10.5742 12.0177 10.2072Z" fill="#000D10"/>
<path d="M8.60723 9.79282C8.6546 9.42528 8.82698 9.08353 9.09711 8.82162C9.36724 8.55971 9.71972 8.39258 10.0988 8.34665C9.71936 6.91313 8.85879 5.64274 7.65268 4.73565C6.44656 3.82856 4.96346 3.33633 3.43703 3.33649C3.43788 4.81631 3.94634 6.25382 4.88236 7.42268C5.81837 8.59154 7.12878 9.42535 8.60723 9.79282Z" fill="#000D10"/>
<path d="M10.5262 8.34665C10.9052 8.39258 11.2577 8.55971 11.5278 8.82162C11.798 9.08353 11.9704 9.42528 12.0177 9.79282C13.4962 9.42493 14.8065 8.59055 15.7421 7.42114C16.6776 6.25173 17.1853 4.81376 17.1851 3.33378C15.6589 3.33461 14.1762 3.8276 12.9707 4.73513C11.7651 5.64266 10.9052 6.91319 10.5262 8.34665Z" fill="#000D10"/>
<path d="M26.5374 2.40931L30.1574 12.3903L33.7397 2.40931H36.4735L31.4018 15.3883H28.8942L23.8036 2.40931H26.5374Z" fill="#000D10"/>
<path d="M40.7429 15.5711C39.9511 15.5711 39.2346 15.4432 38.5936 15.1872C37.9525 14.9191 37.4058 14.5596 36.9533 14.1087C36.5008 13.6456 36.1488 13.1216 35.8975 12.5366C35.6586 11.9394 35.5392 11.3118 35.5392 10.6537C35.5392 9.73971 35.7466 8.90491 36.1614 8.14932C36.5888 7.39373 37.1921 6.79048 37.9714 6.33957C38.7633 5.87647 39.6934 5.64492 40.7618 5.64492C41.8428 5.64492 42.7666 5.87647 43.5333 6.33957C44.3001 6.79048 44.8846 7.39373 45.2868 8.14932C45.7016 8.89272 45.909 9.69705 45.909 10.5623C45.909 10.7086 45.9027 10.8609 45.8901 11.0193C45.8775 11.1656 45.865 11.2874 45.8524 11.3849H38.2165C38.2668 11.8724 38.4113 12.2989 38.6501 12.6646C38.9015 13.0302 39.2158 13.3105 39.5928 13.5054C39.9825 13.6883 40.3973 13.7797 40.8372 13.7797C41.34 13.7797 41.8113 13.6639 42.2513 13.4323C42.7038 13.1886 43.0117 12.8717 43.1751 12.4818L45.3433 13.0667C45.1045 13.5542 44.7589 13.9868 44.3064 14.3646C43.8664 14.7424 43.3448 15.041 42.7415 15.2604C42.1381 15.4675 41.472 15.5711 40.7429 15.5711ZM38.1599 9.83111H43.326C43.2757 9.34363 43.1311 8.92319 42.8923 8.56977C42.6661 8.20416 42.3644 7.92386 41.9873 7.72887C41.6102 7.5217 41.1892 7.41811 40.7241 7.41811C40.2716 7.41811 39.8568 7.5217 39.4797 7.72887C39.1152 7.92386 38.8135 8.20416 38.5747 8.56977C38.3485 8.92319 38.2102 9.34363 38.1599 9.83111Z" fill="#000D10"/>
<path d="M50.8984 15.5711C50.0562 15.5711 49.2518 15.4371 48.485 15.169C47.7183 14.9008 47.0584 14.5048 46.5054 13.9807L47.4104 12.3903C48.0011 12.8534 48.5793 13.1947 49.1449 13.414C49.7231 13.6334 50.2762 13.7431 50.8041 13.7431C51.2943 13.7431 51.6839 13.6578 51.973 13.4872C52.2747 13.3166 52.4255 13.0606 52.4255 12.7194C52.4255 12.4878 52.3438 12.3111 52.1804 12.1893C52.017 12.0552 51.7782 11.9394 51.464 11.8419C51.1623 11.7444 50.7915 11.6348 50.3516 11.5129C49.6226 11.2813 49.013 11.0559 48.5228 10.8365C48.0325 10.6172 47.6617 10.343 47.4104 10.0139C47.1715 9.67268 47.0521 9.24004 47.0521 8.71601C47.0521 8.08229 47.2155 7.53998 47.5423 7.08906C47.8817 6.62596 48.3468 6.26645 48.9375 6.01052C49.5409 5.7546 50.2448 5.62664 51.0492 5.62664C51.7531 5.62664 52.4193 5.73632 53.0477 5.95568C53.6762 6.16286 54.2481 6.50409 54.7634 6.97938L53.7453 8.53321C53.2425 8.15541 52.7649 7.88121 52.3124 7.71059C51.8599 7.52779 51.4011 7.43639 50.9361 7.43639C50.6721 7.43639 50.4207 7.46686 50.1819 7.52779C49.9557 7.58872 49.7671 7.69231 49.6163 7.83855C49.478 7.97261 49.4089 8.1676 49.4089 8.42352C49.4089 8.65507 49.4717 8.83788 49.5974 8.97193C49.7357 9.0938 49.9368 9.20348 50.2008 9.30098C50.4773 9.39847 50.8104 9.50815 51.2 9.63002C51.9919 9.84939 52.6581 10.0748 53.1986 10.3064C53.7516 10.5379 54.1664 10.8243 54.4429 11.1656C54.7195 11.4946 54.8577 11.9516 54.8577 12.5366C54.8577 13.4872 54.4995 14.2306 53.783 14.7668C53.0666 15.303 52.105 15.5711 50.8984 15.5711Z" fill="#000D10"/>
<path d="M65.5695 15.3883H63.043V10.0139C63.043 9.24614 62.9048 8.68554 62.6282 8.33212C62.3517 7.9787 61.9683 7.80199 61.4781 7.80199C61.1388 7.80199 60.7931 7.8873 60.4412 8.05792C60.1018 8.22853 59.7938 8.46618 59.5173 8.77085C59.2408 9.06333 59.0397 9.40457 58.914 9.79455V15.3883H56.3875V5.80944H58.6689V7.58263C58.9203 7.16828 59.2408 6.82095 59.6304 6.54065C60.0201 6.24817 60.4663 6.0288 60.9691 5.88256C61.4844 5.72413 62.0249 5.64492 62.5905 5.64492C63.2064 5.64492 63.7092 5.7546 64.0989 5.97396C64.5011 6.18114 64.8027 6.46753 65.0039 6.83314C65.2175 7.18656 65.3621 7.58872 65.4375 8.03964C65.5255 8.49055 65.5695 8.94756 65.5695 9.41066V15.3883Z" fill="#000D10"/>
<path d="M66.899 12.5549C66.899 11.9333 67.075 11.391 67.4269 10.9279C67.7914 10.4526 68.2942 10.087 68.9352 9.83111C69.5763 9.57518 70.3116 9.44722 71.1411 9.44722C71.5559 9.44722 71.977 9.47769 72.4044 9.53862C72.8317 9.59956 73.2025 9.69705 73.5168 9.83111V9.31926C73.5168 8.70992 73.3282 8.24072 72.9511 7.91168C72.5866 7.58263 72.0398 7.41811 71.3108 7.41811C70.7703 7.41811 70.255 7.50951 69.7648 7.69231C69.2746 7.87511 68.7592 8.14323 68.2188 8.49664L67.408 6.88798C68.0616 6.47363 68.7278 6.16286 69.4066 5.95568C70.0979 5.74851 70.8206 5.64492 71.5748 5.64492C72.9826 5.64492 74.0761 5.98615 74.8554 6.66862C75.6473 7.35108 76.0432 8.32603 76.0432 9.59346V12.6463C76.0432 12.9022 76.0872 13.085 76.1752 13.1947C76.2757 13.3044 76.4328 13.3714 76.6465 13.3958V15.3883C76.4203 15.4249 76.2129 15.4553 76.0243 15.4797C75.8484 15.5041 75.6975 15.5163 75.5719 15.5163C75.0691 15.5163 74.6857 15.4066 74.4217 15.1872C74.1704 14.9679 74.0133 14.6998 73.9504 14.3829L73.8938 13.8893C73.4665 14.4256 72.9323 14.8399 72.2912 15.1324C71.6502 15.4249 70.9966 15.5711 70.3304 15.5711C69.6768 15.5711 69.0861 15.4432 68.5581 15.1872C68.0428 14.9191 67.6343 14.5596 67.3326 14.1087C67.0435 13.6456 66.899 13.1277 66.899 12.5549ZM73.0454 13.0484C73.1837 12.9022 73.2968 12.756 73.3848 12.6097C73.4728 12.4635 73.5168 12.3294 73.5168 12.2075V11.2387C73.2151 11.1168 72.8883 11.0254 72.5363 10.9645C72.1844 10.8914 71.8513 10.8548 71.5371 10.8548C70.8835 10.8548 70.343 10.995 69.9156 11.2753C69.5008 11.5434 69.2934 11.9029 69.2934 12.3538C69.2934 12.5975 69.3626 12.8291 69.5008 13.0484C69.6391 13.2678 69.8402 13.4445 70.1042 13.5786C70.3681 13.7126 70.6824 13.7797 71.0469 13.7797C71.424 13.7797 71.7947 13.7126 72.1593 13.5786C72.5238 13.4323 72.8192 13.2556 73.0454 13.0484Z" fill="#000D10"/>
<path d="M82.8015 15.3883V2.40931H88.7217C89.3376 2.40931 89.9032 2.53117 90.4185 2.77491C90.9464 3.01865 91.3989 3.34769 91.776 3.76205C92.1657 4.1764 92.4611 4.6395 92.6622 5.15135C92.8759 5.6632 92.9827 6.18723 92.9827 6.72346C92.9827 7.27187 92.8821 7.80199 92.681 8.31384C92.4925 8.8135 92.216 9.25223 91.8514 9.63002C91.4869 10.0078 91.0596 10.3003 90.5694 10.5075L93.6237 15.3883H90.7579L88.0052 11.0376H85.4034V15.3883H82.8015ZM85.4034 8.82569H88.6651C88.9919 8.82569 89.281 8.73429 89.5324 8.55149C89.7838 8.3565 89.9849 8.10057 90.1357 7.78371C90.2866 7.46686 90.362 7.11344 90.362 6.72346C90.362 6.3091 90.274 5.94959 90.098 5.64492C89.9221 5.32806 89.6958 5.07823 89.4193 4.89543C89.1553 4.71262 88.8662 4.62122 88.552 4.62122H85.4034V8.82569Z" fill="#000D10"/>
<path d="M99.1567 15.5711C98.3648 15.5711 97.6483 15.4432 97.0073 15.1872C96.3663 14.9191 95.8195 14.5596 95.367 14.1087C94.9145 13.6456 94.5625 13.1216 94.3112 12.5366C94.0723 11.9394 93.9529 11.3118 93.9529 10.6537C93.9529 9.73971 94.1603 8.90491 94.5751 8.14932C95.0025 7.39373 95.6058 6.79048 96.3851 6.33957C97.177 5.87647 98.1071 5.64492 99.1755 5.64492C100.256 5.64492 101.18 5.87647 101.947 6.33957C102.714 6.79048 103.298 7.39373 103.7 8.14932C104.115 8.89272 104.323 9.69705 104.323 10.5623C104.323 10.7086 104.316 10.8609 104.304 11.0193C104.291 11.1656 104.279 11.2874 104.266 11.3849H96.6302C96.6805 11.8724 96.825 12.2989 97.0639 12.6646C97.3152 13.0302 97.6295 13.3105 98.0066 13.5054C98.3962 13.6883 98.811 13.7797 99.2509 13.7797C99.7537 13.7797 100.225 13.6639 100.665 13.4323C101.117 13.1886 101.425 12.8717 101.589 12.4818L103.757 13.0667C103.518 13.5542 103.173 13.9868 102.72 14.3646C102.28 14.7424 101.759 15.041 101.155 15.2604C100.552 15.4675 99.8857 15.5711 99.1567 15.5711ZM96.5736 9.83111H101.74C101.689 9.34363 101.545 8.92319 101.306 8.56977C101.08 8.20416 100.778 7.92386 100.401 7.72887C100.024 7.5217 99.6029 7.41811 99.1378 7.41811C98.6853 7.41811 98.2705 7.5217 97.8934 7.72887C97.5289 7.92386 97.2273 8.20416 96.9884 8.56977C96.7622 8.92319 96.6239 9.34363 96.5736 9.83111Z" fill="#000D10"/>
<path d="M104.994 12.5549C104.994 11.9333 105.17 11.391 105.522 10.9279C105.887 10.4526 106.39 10.087 107.031 9.83111C107.672 9.57518 108.407 9.44722 109.237 9.44722C109.651 9.44722 110.073 9.47769 110.5 9.53862C110.927 9.59956 111.298 9.69705 111.612 9.83111V9.31926C111.612 8.70992 111.424 8.24072 111.047 7.91168C110.682 7.58263 110.135 7.41811 109.406 7.41811C108.866 7.41811 108.351 7.50951 107.86 7.69231C107.37 7.87511 106.855 8.14323 106.314 8.49664L105.504 6.88798C106.157 6.47363 106.823 6.16286 107.502 5.95568C108.193 5.74851 108.916 5.64492 109.67 5.64492C111.078 5.64492 112.172 5.98615 112.951 6.66862C113.743 7.35108 114.139 8.32603 114.139 9.59346V12.6463C114.139 12.9022 114.183 13.085 114.271 13.1947C114.371 13.3044 114.528 13.3714 114.742 13.3958V15.3883C114.516 15.4249 114.308 15.4553 114.12 15.4797C113.944 15.5041 113.793 15.5163 113.667 15.5163C113.165 15.5163 112.781 15.4066 112.517 15.1872C112.266 14.9679 112.109 14.6998 112.046 14.3829L111.989 13.8893C111.562 14.4256 111.028 14.8399 110.387 15.1324C109.746 15.4249 109.092 15.5711 108.426 15.5711C107.772 15.5711 107.182 15.4432 106.654 15.1872C106.138 14.9191 105.73 14.5596 105.428 14.1087C105.139 13.6456 104.994 13.1277 104.994 12.5549ZM111.141 13.0484C111.279 12.9022 111.392 12.756 111.48 12.6097C111.568 12.4635 111.612 12.3294 111.612 12.2075V11.2387C111.311 11.1168 110.984 11.0254 110.632 10.9645C110.28 10.8914 109.947 10.8548 109.633 10.8548C108.979 10.8548 108.438 10.995 108.011 11.2753C107.596 11.5434 107.389 11.9029 107.389 12.3538C107.389 12.5975 107.458 12.8291 107.596 13.0484C107.735 13.2678 107.936 13.4445 108.2 13.5786C108.464 13.7126 108.778 13.7797 109.142 13.7797C109.519 13.7797 109.89 13.7126 110.255 13.5786C110.619 13.4323 110.915 13.2556 111.141 13.0484Z" fill="#000D10"/>
<path d="M116.292 2.0437H118.819V12.3172C118.819 12.756 118.894 13.0545 119.045 13.213C119.196 13.3592 119.403 13.4323 119.667 13.4323C119.868 13.4323 120.076 13.408 120.289 13.3592C120.503 13.3105 120.691 13.2495 120.855 13.1764L121.194 15.041C120.855 15.1994 120.459 15.3213 120.006 15.4066C119.554 15.4919 119.145 15.5346 118.781 15.5346C117.989 15.5346 117.373 15.3335 116.933 14.9313C116.506 14.517 116.292 13.932 116.292 13.1764V2.0437Z" fill="#000D10"/>
<path d="M127.916 14.8947C127.702 14.9801 127.445 15.0776 127.143 15.1872C126.841 15.2969 126.515 15.3822 126.163 15.4432C125.823 15.5163 125.478 15.5528 125.126 15.5528C124.661 15.5528 124.233 15.4736 123.844 15.3152C123.454 15.1568 123.14 14.9069 122.901 14.5657C122.675 14.2123 122.562 13.7553 122.562 13.1947V7.69231H121.261V5.80944H122.562V2.70179H125.088V5.80944H127.162V7.69231H125.088V12.3721C125.101 12.7011 125.195 12.9388 125.371 13.085C125.547 13.2312 125.767 13.3044 126.031 13.3044C126.295 13.3044 126.552 13.2617 126.804 13.1764C127.055 13.0911 127.256 13.018 127.407 12.957L127.916 14.8947Z" fill="#000D10"/>
<path d="M129.214 17.2529C129.44 17.3017 129.648 17.3443 129.836 17.3809C130.037 17.4174 130.207 17.4357 130.345 17.4357C130.584 17.4357 130.779 17.3748 130.93 17.2529C131.093 17.1432 131.25 16.936 131.401 16.6314C131.552 16.3389 131.709 15.9245 131.872 15.3883L127.97 5.80944H130.59L133.249 12.8839L135.587 5.80944H138L133.852 17.2895C133.701 17.716 133.469 18.0999 133.154 18.4411C132.853 18.7945 132.469 19.0688 132.004 19.2637C131.552 19.4709 131.043 19.5745 130.477 19.5745C130.276 19.5745 130.075 19.5562 129.874 19.5197C129.673 19.4953 129.453 19.4465 129.214 19.3734V17.2529Z" fill="#000D10"/>
</svg>
