<svg width="178" height="28" viewBox="0 0 178 28" fill="none" xmlns="http://www.w3.org/2000/svg">
<rect x="0.710938" y="0.727539" width="177.29" height="26.9247" rx="4" fill="#282828"/>
<path d="M10.3776 22.0662L10.3776 8.40496H14.2647V9.89958H12.2486V20.577H14.2647V22.0662H10.3776Z" fill="#F37024"/>
<path d="M20.5184 16.0075C20.5964 16.5996 21.2738 16.9944 22.1034 16.9944C22.9759 16.9944 23.542 16.6111 23.542 16.0918C23.542 15.6127 23.1711 15.3789 22.1756 15.1758L21.0239 14.9535C19.4018 14.6488 18.5664 13.7865 18.5664 12.4758C18.5664 10.799 20.0304 9.72018 22.0663 9.72018C24.2681 9.72018 25.5681 10.7684 25.5915 12.3915L23.5244 12.3915C23.4815 11.7629 22.89 11.3854 22.0858 11.3854C21.2816 11.3854 20.7858 11.7323 20.7858 12.2592C20.7858 12.7268 21.1762 12.9836 22.0975 13.1695L23.2374 13.3783C24.9767 13.7079 25.7574 14.4802 25.7574 15.8465C25.7574 17.5712 24.3111 18.6596 22.0487 18.6596C19.7864 18.6596 18.4161 17.688 18.3887 16.0075L20.5184 16.0075Z" fill="#F3F3F3"/>
<path d="M33.4351 18.6596L33.4351 15.1816L29.9215 15.1816L29.9215 18.6596L27.6904 18.6596L27.6904 10.021L29.9274 10.021L29.9274 13.409L33.441 13.409L33.441 10.021L35.6721 10.021L35.6721 18.6596L33.4351 18.6596Z" fill="#F3F3F3"/>
<path d="M37.6051 18.6596L40.5585 10.021L43.2913 10.021L46.2583 18.6596L43.8769 18.6596L43.3205 16.7625L40.4472 16.7625L37.6051 18.6596ZM40.8786 15.1816L42.8852 15.1816L41.9093 11.853L41.8605 11.853L40.8786 15.1816Z" fill="#F3F3F3"/>
<path d="M48.1913 18.6596L48.1913 10.021L52.0035 10.021C53.893 10.021 55.1735 11.2245 55.1735 13.0871C55.1735 14.9497 53.8266 16.1339 51.8688 16.1339L50.4302 16.1339L48.1913 18.6596ZM50.4302 14.4821L51.4062 14.4821C52.3568 14.4821 52.917 13.9973 52.917 13.0928C52.917 12.1883 52.3568 11.7093 51.4179 11.7093L50.4419 11.7093L50.4302 14.4821Z" fill="#F3F3F3"/>
<path d="M65.7967 14.1928C65.7967 16.9464 64.1199 18.6596 61.4536 18.6596C58.7872 18.6596 57.1065 16.9464 57.1065 14.1928C57.1065 11.4391 58.7891 9.72018 61.4536 9.72018C64.118 9.72018 65.7967 11.4391 65.7967 14.1928ZM59.3864 14.1928C59.3864 15.8331 60.1984 16.8755 61.4536 16.8755C62.7087 16.8755 63.5227 15.8331 63.5227 14.1928C63.5227 12.5524 62.7048 11.51 61.4536 11.51C60.2023 11.51 59.3864 12.5543 59.3864 14.1928Z" fill="#F3F3F3"/>
<path d="M70.8529 12.242L71.9675 16.5095L72.0163 16.5095L73.7067 10.021L76.1584 10.021L73.3514 18.6596L70.5347 18.6596L67.7298 10.021" fill="#F3F3F3"/>
<path d="M78.0914 18.6596L81.0487 10.021L83.7814 10.021L86.7387 18.6596L84.367 18.6596L83.8107 16.7625L80.9335 16.7625L78.0914 18.6596ZM81.3668 15.1816L83.3735 15.1816L82.3975 11.853L82.3487 11.853L81.3668 15.1816Z" fill="#F3F3F3"/>
<path d="M90.9106 16.887L94.5511 16.887L94.5511 18.6596L88.6717 18.6596L88.6717 10.021" fill="#F3F3F3"/>
<path d="M101.42 18.4373L104.434 9.63586L107.223 9.63586L110.237 18.4373L107.813 18.4373L107.241 16.5038L104.313 16.5038L101.42 18.4373ZM104.754 14.8941L106.8 14.8941L105.804 11.5023L105.755 11.5023L104.754 14.8941Z" fill="#F3F3F3"/>
<path d="M120.886 13.7903L120.886 14.8711C120.886 17.2741 119.369 18.7439 116.816 18.7439C114.05 18.7439 112.385 17.0672 112.385 14.1755C112.385 11.3203 114.05 9.63586 116.759 9.63586C118.934 9.63586 120.562 10.8987 120.792 12.7019L118.538 12.7019C118.313 11.922 117.642 11.4467 116.765 11.4467C115.473 11.4467 114.71 12.4394 114.71 14.1544C114.71 15.8695 115.555 16.9541 116.857 16.9541C117.89 16.9541 118.614 16.3562 118.672 15.4709L118.672 15.3368L117.033 15.3368" fill="#F3F3F3"/>
<path d="M129.18 18.4373L123.034 18.4373L123.034 9.63586L129.18 9.63586L129.18 11.4429L125.316 11.4429L125.316 13.1944L128.95 13.1944L128.95 14.8405L125.316 14.8405L125.316 16.6341L129.18 16.6341L129.18 18.4373Z" fill="#F3F3F3"/>
<path d="M131.328 18.4373L131.328 9.63587L133.148 9.63587L136.952 14.7542L137.001 14.7542L137.001 9.63587L139.164 9.63587L139.164 18.4373L137.362 18.4373L133.54 13.2634L133.491 13.2634L133.491 18.4373L131.328 18.4373Z" fill="#F3F3F3"/>
<path d="M141.311 14.1736C141.311 11.2992 142.992 9.63586 145.654 9.63586C147.917 9.63586 149.633 11.0654 149.701 13.1388L147.513 13.1388C147.401 12.1059 146.652 11.4142 145.654 11.4142C144.415 11.4142 143.628 12.4547 143.628 14.1583C143.628 15.8618 144.409 16.9349 145.668 16.9349C146.666 16.9349 147.392 16.2892 147.534 15.262L149.72 15.262C149.615 17.3489 147.964 18.7228 145.662 18.7228C142.978 18.7171 141.311 17.0442 141.311 14.1736Z" fill="#F3F3F3"/>
<path d="M154.956 18.4373L154.956 15.4134L151.868 9.63586L154.316 9.63586L156.098 13.2959L156.143 13.2959L157.919 9.63586L160.324 9.63586L157.236 15.4134L157.236 18.4373L154.956 18.4373Z" fill="#F3F3F3"/>
<path d="M168.615 8.40496V22.0662H164.727V20.577H166.744V9.89958H164.727V8.40496H168.615Z" fill="#F37024"/>
</svg>
